<?xml version="1.0" standalone="no"?><!DOCTYPE svg PUBLIC "-//W3C//DTD SVG 1.1//EN" "http://www.w3.org/Graphics/SVG/1.1/DTD/svg11.dtd"><svg t="1741243464354" class="icon" viewBox="0 0 1024 1024" version="1.1" xmlns="http://www.w3.org/2000/svg" p-id="1344" xmlns:xlink="http://www.w3.org/1999/xlink" width="200" height="200"><path d="M288.384 173.488a94.208 94.208 0 0 1 93.392-81.488H646.24a94.208 94.208 0 0 1 93.376 81.488h62.176A94.16 94.16 0 0 1 896 267.568V584a32 32 0 1 1-64 0V267.584c0-16.56-13.472-30.08-30.224-30.08H738.24a94.24 94.24 0 0 1-92.016 73.712H381.76a94.24 94.24 0 0 1-92-73.728h-63.552a30.16 30.16 0 0 0-30.224 30.08V841.92c0 16.56 13.472 30.096 30.224 30.096H516a32 32 0 1 1 0 64H226.224a94.16 94.16 0 0 1-94.224-94.08V267.568c0-52.032 42.24-94.08 94.224-94.08h62.176z m93.392-17.488a30.16 30.16 0 0 0-30.224 30.08v31.04c0 16.56 13.472 30.096 30.24 30.096h264.432a30.16 30.16 0 0 0 30.224-30.08v-31.04c0-16.56-13.472-30.096-30.24-30.096H381.792z" fill="#4985f5" p-id="1345"></path><path d="M472 444a32 32 0 0 1 32-32h236a32 32 0 1 1 0 64H504a32 32 0 0 1-32-32zM472 668a32 32 0 0 1 32-32h192a32 32 0 1 1 0 64h-192a32 32 0 0 1-32-32zM268 396a32 32 0 0 1 32-32h96a32 32 0 0 1 32 32v96a32 32 0 0 1-32 32h-96a32 32 0 0 1-32-32v-96z m64 32v32h32v-32h-32zM268 624a32 32 0 0 1 32-32h96a32 32 0 0 1 32 32v96a32 32 0 0 1-32 32h-96a32 32 0 0 1-32-32v-96z m64 32v32h32v-32h-32zM926.624 660.752a32 32 0 0 1 0 45.248L719.216 913.424a64 64 0 0 1-90.512 0l-85.328-85.344a32 32 0 1 1 45.248-45.248l85.328 85.328 207.424-207.408a32 32 0 0 1 45.248 0z" fill="#4985f5" p-id="1346"></path></svg>