<?xml version="1.0" standalone="no"?><!DOCTYPE svg PUBLIC "-//W3C//DTD SVG 1.1//EN" "http://www.w3.org/Graphics/SVG/1.1/DTD/svg11.dtd"><svg t="1741860473403" class="icon" viewBox="0 0 1024 1024" version="1.1" xmlns="http://www.w3.org/2000/svg" p-id="2922" xmlns:xlink="http://www.w3.org/1999/xlink" width="200" height="200"><path d="M451.640889 521.841778h-196.835556V462.791111c0-21.731556 17.635556-39.367111 39.424-39.367111h157.411556V284.16a39.367111 39.367111 0 0 1 78.734222 0v139.264h157.411556c21.788444 0 39.367111 17.635556 39.367111 39.367111v59.050667h-196.835556v139.264a39.367111 39.367111 0 0 1-78.677333 0V521.841778z m39.367111 501.816889c-15.928889 0-31.857778-4.778667-45.511111-14.449778l-201.386667-142.734222C123.562667 771.982222 58.026667 638.179556 58.026667 488.732444V217.884444c0-15.189333 8.760889-29.013333 22.528-35.555555L447.032889 8.533333a36.636444 36.636444 0 0 1 4.266667-1.706666 124.359111 124.359111 0 0 1 79.303111 0c1.422222 0.455111 2.844444 1.080889 4.209777 1.706666l366.648889 173.795556a39.367111 39.367111 0 0 1 22.528 35.555555v270.904889c0 149.390222-65.536 283.136-184.547555 376.604445L536.519111 1009.208889c-13.653333 9.671111-29.582222 14.449778-45.511111 14.449778zM136.760889 242.801778v245.987555c0 124.700444 54.840889 236.430222 154.396444 314.595556l199.850667 141.596444 201.386667-142.734222c98.019556-77.027556 152.860444-188.757333 152.860444-313.457778V242.801778L503.466667 80.782222a45.397333 45.397333 0 0 0-25.088 0L136.760889 242.801778z" fill="#4990E2" p-id="2923"></path></svg>