<?xml version="1.0" standalone="no"?><!DOCTYPE svg PUBLIC "-//W3C//DTD SVG 1.1//EN" "http://www.w3.org/Graphics/SVG/1.1/DTD/svg11.dtd"><svg t="1741860482580" class="icon" viewBox="0 0 1024 1024" version="1.1" xmlns="http://www.w3.org/2000/svg" p-id="3069" xmlns:xlink="http://www.w3.org/1999/xlink" width="200" height="200"><path d="M1005.9776 184.9856c-7.7824-29.44-23.7056-53.5552-48.3328-71.6288-19.3536-14.2336-40.8064-23.4496-65.1776-23.5008-43.8272-0.1024-87.6544-0.3584-131.4816 0.1536-17.9712 0.2048-35.7376 1.9968-53.4528 4.7616a494.35648 494.35648 0 0 0-103.936 28.0064c-25.1392 9.8304-49.5616 21.3504-74.3424 32.0512-11.4688 4.9664-22.9888 5.7344-34.816 1.536-5.1712-1.8432-10.0864-4.2496-15.104-6.4-19.3536-8.3456-38.5024-17.2544-58.0608-25.1392a491.29984 491.29984 0 0 0-79.1552-24.4224c-29.0816-6.2976-58.4704-10.5984-88.2688-10.6496-41.8816-0.0512-83.712-0.0512-125.5936 0-4.7616 0-9.5744 0.1536-14.2848 0.9728-14.7968 2.56-28.6208 7.8848-41.5232 15.616C52.5312 118.272 36.864 134.4512 25.6 154.7776c-9.1136 16.4864-14.6944 33.9968-14.6944 53.0432 0 177.92 0 355.84 0.0512 533.8112 0 5.632 0.1536 11.264 1.3824 16.7936 4.608 21.5552 13.9264 40.8064 28.3648 57.5488 11.6736 13.5168 25.4464 24.2688 41.472 32.0512 17.7664 8.6528 36.6592 12.5952 56.4736 12.4928 22.4256-0.1024 44.8-0.1536 67.2256 0 15.8208 0.1024 31.6928-0.3072 47.5136 0.4608 15.616 0.768 31.1808 1.9968 46.6432 4.1472 27.2384 3.7888 53.9136 9.984 80.128 18.2272 32.2048 10.1888 62.5152 24.832 93.44 38.0416 7.4752 3.2256 14.6944 7.2192 23.1424 7.6288 3.1232 0.1536 6.2976 0 9.4208 0.6656h7.2192c1.2288-0.6656 2.56-0.2048 3.84-0.3072 6.4-0.4608 12.7488-0.9216 18.8416-3.584 16.9984-7.424 34.048-14.848 50.9952-22.3744 29.7472-13.1584 60.3648-23.7568 92.1088-30.9248a484.3008 484.3008 0 0 1 106.5472-12.0832c33.2288-0.0512 66.4576 0 99.6864 0 6.144 0 12.2368-0.6656 18.2272-1.7408 30.9248-5.4272 56.576-20.2752 76.5952-44.4416 18.1248-21.8624 28.8768-46.6944 28.0064-75.6736V210.176c-0.1024-8.3456-0.0512-16.896-2.2528-25.1904z m-17.6128 545.536c0.0512 27.4944-8.4992 51.7632-26.7264 72.2944-20.3264 22.8864-46.1312 35.1232-76.7488 35.6352-34.7648 0.6144-69.5296-0.1024-104.2944 0.256-67.2256 0.6656-131.7376 14.4384-193.4848 40.96-19.2512 8.2432-38.4 16.7936-57.5488 25.1904-13.3632 5.888-26.624 5.632-39.9872-0.1536-25.088-10.9568-49.8688-22.6304-75.4176-32.512a496.86016 496.86016 0 0 0-113.5616-29.0816c-22.8864-3.0208-45.8752-4.5568-68.9664-4.5056-32.5632 0.0512-65.1776 0.3584-97.7408-0.1536-50.2784-0.768-94.3616-40.1408-101.376-89.856-0.8192-5.7344-1.2288-11.52-1.2288-17.3056V217.8048c0-52.3776 35.0208-95.0784 86.3232-105.472 6.7584-1.3824 13.6192-1.792 20.5312-1.7408 35.9424 0.0512 71.936-0.4096 107.8784 0.256 53.2992 0.9728 104.96 11.2128 154.9312 29.696 26.7264 9.8816 52.5312 22.016 78.5408 33.5872 20.1728 8.96 39.936 9.1136 60.16 0.2048 28.3648-12.4928 56.32-25.856 85.6064-36.1472a480.13824 480.13824 0 0 1 89.4464-22.2208c26.112-3.9424 52.3264-5.4784 78.7456-5.3248 31.0272 0.1536 62.1568-1.0752 93.1328 0.3584 44.544 2.048 75.7248 24.9856 93.8496 65.5872 6.0416 13.568 7.9872 28.0064 7.936 42.8032-0.1024 85.1456-0.0512 170.2912-0.0512 255.4368 0.0512 85.1968-0.0512 170.4448 0.0512 255.6928z" fill="#3D6EB6" p-id="3070"></path><path d="M1008.5888 739.6352c-0.1536 0.1024-0.3584 0.1024-0.5632 0.1024-0.0512-2.7136-0.1024-5.4784-0.1024-8.192V217.4976c0-2.6112 0.0512-5.2224 0.1024-7.8336 0.2048-0.0512 0.3584 0 0.5632 0.1024v529.8688z" fill="#95A5D4" p-id="3071"></path><path d="M970.3936 190.1568c-10.6496-36.7616-46.0288-64.4096-84.3264-64.9728-33.2288-0.4608-66.4576-0.1024-99.6864-0.1536-18.5856 0-37.12 1.1264-55.6032 3.2768-36.4544 4.3008-71.936 12.8-106.3936 25.4976-26.8288 9.8816-52.736 22.0672-78.848 33.6384-24.1664 10.7008-47.7696 10.5472-71.8848-0.2048-24.8832-11.1616-49.6128-22.6816-75.1616-32.256-48.7424-18.3296-99.2256-28.5696-151.296-29.6448-37.7856-0.768-75.6224-0.2048-113.4592-0.2048-6.0416 0-11.9808 0.9728-17.8176 2.3552-40.0384 9.4208-70.656 45.9264-70.6048 91.0336 0.256 170.9568 0.1024 341.8624 0.1024 512.8192 0 10.24 1.3824 20.224 4.6592 29.952 12.6464 37.6832 47.104 62.6176 87.3472 62.8224 32.0512 0.2048 64.0512 0.1024 96.1024 0.0512 20.1216-0.0512 40.192 1.1264 60.16 3.4816 37.4272 4.4032 73.9328 12.8 109.5168 25.1392 25.9072 8.96 50.688 20.6336 75.8272 31.5392 5.6832 2.4576 11.4176 4.9664 17.1008 7.4752 11.2128 4.9664 21.76 2.7136 32.512-2.0992 25.6-11.3664 50.9952-23.296 77.312-33.0752 57.1392-21.248 116.224-32.1536 177.2032-32.3584 32.768-0.1536 65.5872-0.0512 98.3552-0.0512 7.1168 0 14.1824-0.6144 21.1456-2.2528 42.7008-10.0864 71.5776-46.5408 71.6288-90.4704 0.0512-85.5552 0-171.1616 0-256.7168V219.3408c0-9.984-1.1264-19.6608-3.8912-29.184z m-6.2464 541.2352c-0.1536 35.584-17.3568 60.928-49.5616 75.9296-10.4448 4.864-21.6064 6.6048-33.1264 6.5536-29.184-0.0512-58.368 0.1536-87.552-0.0512-79.9744-0.6656-156.3136 15.5136-229.0688 48.6912-14.6944 6.7072-29.5936 12.9536-44.3392 19.5072-7.1168 3.1744-14.0288 3.1232-21.1968 0-25.7536-11.1104-51.0976-23.1424-77.2608-33.2288a520.8576 520.8576 0 0 0-112.1792-29.3376c-27.1872-3.9936-54.528-5.6832-81.9712-5.632-29.8496 0.0512-59.6992 0.1536-89.4976-0.0512-32.6144-0.256-57.088-14.7968-73.2672-43.0592-6.3488-11.0592-9.3696-23.2448-9.5744-36.0448-0.0512-1.6384-0.0512-3.2768-0.0512-4.9152 0-170.2912 0.0512-340.5312-0.0512-510.8224 0-26.0608 9.3696-47.7184 29.1328-64.6144 14.3872-12.288 31.232-18.944 50.1248-19.0976 40.7552-0.3072 81.5616-1.28 122.2656 0.5632 56.7296 2.6112 111.104 15.872 163.072 38.8096 17.9712 7.936 35.8912 15.9232 53.9648 23.6544 25.7536 10.9568 51.0976 9.3696 76.4928-1.9456 27.1872-12.0832 54.1184-24.8832 82.2272-34.816 34.0992-12.0832 69.12-20.0192 105.1136-23.8592 16.8448-1.792 33.792-2.56 50.7392-2.6112 30.72-0.0512 61.44-0.1536 92.16 0.0512 31.8464 0.2048 56.32 13.8752 72.8064 41.1648 7.7312 12.8512 10.8032 26.9824 10.8032 41.9328-0.0512 85.4528-0.0512 170.9056-0.0512 256.4096-0.0512 85.6576 0.2048 171.264-0.1536 256.8192z" fill="#3D6EB6" p-id="3072"></path><path d="M435.6096 534.4768c-0.1024-65.792-0.256-131.584-0.3072-197.376 0-5.0176-0.9216-9.7792-3.0208-14.2848-8.2944-17.9712-22.016-30.5664-39.936-38.3488-19.5584-8.4992-39.8848-14.7456-60.672-19.5072-45.2096-10.3936-91.1872-13.1072-137.3696-13.1072-8.6016 0-16.4864 3.2256-23.296 8.5504-12.0832 9.4208-17.8176 22.016-17.8176 37.2736V639.6416c0 3.584 0.1024 7.168 0.7168 10.752 3.4304 20.2752 20.5824 36.0448 41.0112 36.9152 20.9408 0.8704 41.9328 0.7168 62.9248 1.8432 20.8384 1.1264 41.6256 2.816 62.3104 5.5296 24.2688 3.2256 48.1792 8.1408 71.8336 14.336 16.8448 4.4032 32.1536-3.1744 39.3216-19.0976 3.4816-7.7312 4.608-15.872 4.608-24.2688l-0.3072-131.1744z m-12.3904 148.8896c-5.0688 13.4144-15.872 19.2-29.696 15.5136-26.5216-7.1168-53.4016-12.1856-80.64-15.4624-25.9584-3.1232-52.0192-4.7616-78.1312-5.4272-12.2368-0.3072-24.4736-0.512-36.7104-0.6656-19.456-0.2048-34.8672-15.5136-34.8672-35.1232-0.0512-55.6032 0-111.2576 0-166.8608v-5.888-172.8c0-16.384 10.8544-30.4128 26.368-34.048 2.0992-0.512 4.3008-0.8192 6.5024-0.8192 44.7488 0.5632 89.2928 2.816 133.12 12.9024 20.224 4.6592 40.0384 10.8032 59.136 18.8928 14.0288 5.9392 24.9344 15.5648 32.7168 28.6208 3.0208 5.0688 4.4544 10.5472 4.4544 16.5376 0.0512 86.4256 0.2048 172.9024 0.3584 259.328 0.0512 22.4256 0.1536 44.8 0.2048 67.2256 0 6.2464-0.6656 12.288-2.816 18.0736zM822.7328 251.6992c-28.1088 0.1024-56.1152 1.3824-84.0704 4.5056-34.4064 3.84-67.9424 11.2128-100.5568 23.04-14.5408 5.2736-28.0576 12.032-38.8096 23.5008-10.0864 10.752-16.64 22.8352-15.6672 38.1952 0.4096 6.0928 0.0512 12.2368 0.0512 18.3296-0.0512 10.3424-1.3824 20.736 0.512 31.0784 4.1472 22.8864 22.7328 36.2496 45.568 29.44 14.7456-4.4032 29.696-8.0384 44.4416-12.288 43.1104-12.3904 86.9888-20.6336 131.4816-26.0608 8.7552-1.0752 17.6128-1.536 26.2144-3.84 20.0704-5.376 33.7408-21.248 34.4064-40.8576 0.4608-14.7456 0.5632-29.4912-0.1024-44.2368-1.024-22.9888-20.4288-40.9088-43.4688-40.8064z m33.7408 82.9952c-0.1536 15.9232-10.5984 28.416-27.2384 33.0752-7.168 1.9968-14.6432 2.304-22.016 3.2256-46.6944 5.5808-92.7232 14.1824-137.8816 27.2896-14.0288 4.0448-28.2112 7.5776-42.24 11.6736-18.3808 5.376-30.0544-5.4784-33.024-21.1968-1.7408-9.3184-0.512-18.7392-0.6656-28.1088v-1.9456h0.4096c0-7.6288 0.1024-15.3088-0.0512-22.9376-0.0512-5.4272 1.6896-10.2912 4.4544-14.848 7.8336-12.8 18.7392-22.1696 32.5632-27.8016 32.3072-13.2096 65.9456-21.2992 100.5056-25.7536 30.3104-3.8912 60.7232-5.1712 91.1872-5.5296 18.432-0.2048 33.536 14.4384 33.9456 32.8704 0.3072 13.312 0.2048 26.6752 0.0512 39.9872zM822.016 431.5648c-29.0816 0.3072-58.112 1.536-87.04 4.9664-33.3824 3.9936-65.9456 11.3664-97.6384 22.8864-15.1552 5.5296-28.8768 12.9024-39.6288 25.1392-8.9088 10.1888-15.0016 21.4528-14.08 35.5328 0.2048 3.1744 0.0512 6.3488 0.0512 9.5232h-0.4608c0 3.9424-0.1024 7.8848 0 11.776 0.1024 4.0448 0.6144 8.0384 1.5872 11.9808 5.376 21.4016 23.552 32.512 44.2368 26.4704 14.848-4.352 29.9008-8.0896 44.8-12.3904 41.3184-11.8784 83.3536-20.0192 126.0032-25.3952 10.8032-1.3824 21.76-1.9968 32.4096-4.5056 19.0976-4.5056 31.0784-16.9472 33.6384-35.584 1.3312-9.5232 0.8704-19.2 0.3584-28.8256-1.28-23.7056-20.5312-41.8304-44.2368-41.5744z m34.2528 67.584c-0.9728 14.5408-11.008 24.9344-26.88 28.6208-9.0624 2.0992-18.3808 2.6624-27.5456 3.7888-45.056 5.5296-89.3952 14.1312-133.0176 26.7776-13.9264 4.0448-28.0064 7.5264-41.9328 11.5712-18.2784 5.3248-29.7472-5.632-32.8192-21.0944-1.3312-6.7072-0.6144-13.5168-0.256-20.2752 0-3.584 0.1536-7.2192-0.0512-10.8032-0.4608-7.7312 2.3552-14.336 6.7072-20.4288 7.9872-11.2128 18.3296-19.5072 31.1296-24.6784 32.6656-13.2096 66.6112-21.2992 101.5808-25.6 29.8496-3.6864 59.8528-5.0688 89.9072-5.1712 17.7152-0.0512 32.7168 14.3872 33.3312 32.1024 0.256 8.3968 0.4096 16.8448-0.1536 25.1904z" fill="#3D6EB6" p-id="3073"></path></svg>