<?xml version="1.0" standalone="no"?><!DOCTYPE svg PUBLIC "-//W3C//DTD SVG 1.1//EN" "http://www.w3.org/Graphics/SVG/1.1/DTD/svg11.dtd"><svg t="1741860485558" class="icon" viewBox="0 0 1093 1024" version="1.1" xmlns="http://www.w3.org/2000/svg" p-id="3219" xmlns:xlink="http://www.w3.org/1999/xlink" width="213.4765625" height="200"><path d="M717.835506 784.268944l49.33609 60.922247a50.808809 50.808809 0 0 0 71.426876 7.582202l115.573932-93.586696a50.820315 50.820315 0 0 0 7.455641-71.449888 50.808809 50.808809 0 0 0-71.449888-7.570697l-76.132674 61.658607-17.338966-21.423461a50.785798 50.785798 0 0 0-71.426877-7.570696 50.797303 50.797303 0 0 0-7.444134 71.449887m111.420404-286.627955c145.292944 0 263.501663 117.990112 263.501663 263.041439 0 23.931685-3.520719 46.988944-9.526652 69.033707-30.478382 111.604494-132.659775 194.00773-253.975011 194.007731-145.281438 0-263.490157-118.013124-263.490157-263.041438 0-129.035506 93.621213-236.440449 216.581753-258.623281a263.294562 263.294562 0 0 1 46.908404-4.418158z" fill="#00B3F3" p-id="3220"></path><path d="M788.307416 83.760899V55.606652c0-26.635506-22.136809-48.220045-49.439641-48.220045-27.314337 0-49.43964 21.584539-49.43964 48.220045V83.760899H274.961258V55.618157c0-26.635506-22.125303-48.220045-49.43964-48.220045-27.302831 0-49.43964 21.584539-49.43964 48.220045V83.760899H49.43964C22.125303 83.760899 0 105.356944 0 131.980944v725.17609c0 26.624 22.125303 48.231551 49.43964 48.23155h467.082068a337.344719 337.344719 0 0 1-42.064539-163.264719c0-191.050787 159.318292-346.468674 355.109393-346.468674 57.067865 0 110.822112 13.49609 158.627955 36.933034 0.138067-1.472719 0.460225-2.88791 0.460225-4.406652V131.980944c0-26.624-22.136809-48.231551-49.439641-48.231551l-132.763326-0.701842-18.144359 0.701842z" fill="#00B3F3" p-id="3221"></path></svg>