<?xml version="1.0" standalone="no"?><!DOCTYPE svg PUBLIC "-//W3C//DTD SVG 1.1//EN" "http://www.w3.org/Graphics/SVG/1.1/DTD/svg11.dtd"><svg t="1741849401742" class="icon" viewBox="0 0 1024 1024" version="1.1" xmlns="http://www.w3.org/2000/svg" p-id="2608" xmlns:xlink="http://www.w3.org/1999/xlink" width="200" height="200"><path d="M153.6 51.2h51.2v51.2h-51.2zM870.4 51.2h-51.2v51.2h51.2zM102.4 102.4h51.2v51.2H102.4zM921.6 102.4h-51.2v51.2h51.2z" fill="#FFFFFF" p-id="2609"></path><path d="M153.6 102.4h51.2v51.2h-51.2zM870.4 102.4h-51.2v51.2h51.2zM102.4 153.6h51.2v51.2H102.4zM921.6 153.6h-51.2v51.2h51.2z" fill="#FFF3A4" p-id="2610"></path><path d="M102.4 204.8h51.2v51.2H102.4zM921.6 204.8h-51.2v51.2h51.2zM204.8 153.6h51.2v51.2h-51.2zM819.2 153.6h-51.2v51.2h51.2zM204.8 204.8h51.2v51.2h-51.2zM819.2 204.8h-51.2v51.2h51.2z" fill="#FFDE00" p-id="2611"></path><path d="M204.8 256h51.2v51.2h-51.2zM819.2 256h-51.2v51.2h51.2zM204.8 307.2h51.2v51.2h-51.2zM819.2 307.2h-51.2v51.2h51.2z" fill="#FF8200" p-id="2612"></path><path d="M204.8 102.4h51.2v51.2h-51.2zM819.2 102.4h-51.2v51.2h51.2zM153.6 153.6h51.2v51.2h-51.2zM870.4 153.6h-51.2v51.2h51.2zM153.6 204.8h51.2v51.2h-51.2zM870.4 204.8h-51.2v51.2h51.2zM153.6 256h51.2v51.2h-51.2zM870.4 256h-51.2v51.2h51.2z" fill="#FFDE00" p-id="2613"></path><path d="M153.6 307.2h51.2v51.2h-51.2zM870.4 307.2h-51.2v51.2h51.2z" fill="#FF8200" p-id="2614"></path><path d="M256 153.6h51.2v51.2h-51.2zM768 153.6h-51.2v51.2h51.2z" fill="#FFDE00" p-id="2615"></path><path d="M256 204.8h51.2v51.2h-51.2zM768 204.8h-51.2v51.2h51.2zM256 256h51.2v51.2h-51.2zM768 256h-51.2v51.2h51.2zM256 307.2h51.2v51.2h-51.2zM768 307.2h-51.2v51.2h51.2z" fill="#FF8200" p-id="2616"></path><path d="M256 358.4h51.2v51.2h-51.2zM768 358.4h-51.2v51.2h51.2z" fill="#FF4E00" p-id="2617"></path><path d="M153.6 409.6h51.2v51.2h-51.2zM870.4 409.6h-51.2v51.2h51.2z" fill="#FF8200" p-id="2618"></path><path d="M51.2 460.8h51.2v51.2H51.2zM972.8 460.8h-51.2v51.2h51.2zM51.2 512h51.2v51.2H51.2zM972.8 512h-51.2v51.2h51.2z" fill="#FFF3A4" p-id="2619"></path><path d="M153.6 460.8h51.2v51.2h-51.2zM870.4 460.8h-51.2v51.2h51.2zM153.6 512h51.2v51.2h-51.2zM870.4 512h-51.2v51.2h51.2z" fill="#FFDE00" p-id="2620"></path><path d="M153.6 563.2h51.2v51.2h-51.2zM870.4 563.2h-51.2v51.2h51.2z" fill="#FF8200" p-id="2621"></path><path d="M256 614.4h51.2v51.2h-51.2zM768 614.4h-51.2v51.2h51.2z" fill="#FF4E00" p-id="2622"></path><path d="M153.6 665.6h51.2v51.2h-51.2zM870.4 665.6h-51.2v51.2h51.2z" fill="#FF8200" p-id="2623"></path><path d="M153.6 716.8h51.2v51.2h-51.2zM870.4 716.8h-51.2v51.2h51.2zM102.4 768h51.2v51.2H102.4zM921.6 768h-51.2v51.2h51.2z" fill="#FFDE00" p-id="2624"></path><path d="M102.4 819.2h51.2v51.2H102.4zM921.6 819.2h-51.2v51.2h51.2z" fill="#FFF3A4" p-id="2625"></path><path d="M256 665.6h51.2v51.2h-51.2zM768 665.6h-51.2v51.2h51.2zM256 716.8h51.2v51.2h-51.2zM768 716.8h-51.2v51.2h51.2z" fill="#FF8200" p-id="2626"></path><path d="M204.8 768h51.2v51.2h-51.2zM819.2 768h-51.2v51.2h51.2zM204.8 819.2h51.2v51.2h-51.2zM819.2 819.2h-51.2v51.2h51.2zM204.8 870.4h51.2v51.2h-51.2zM819.2 870.4h-51.2v51.2h51.2z" fill="#FFDE00" p-id="2627"></path><path d="M256 460.8h51.2v51.2h-51.2zM768 460.8h-51.2v51.2h51.2zM256 512h51.2v51.2h-51.2zM768 512h-51.2v51.2h51.2zM307.2 153.6h51.2v51.2h-51.2zM716.8 153.6h-51.2v51.2h51.2zM307.2 204.8h51.2v51.2h-51.2zM716.8 204.8h-51.2v51.2h51.2zM307.2 256h51.2v51.2h-51.2zM716.8 256h-51.2v51.2h51.2z" fill="#FF8200" p-id="2628"></path><path d="M358.4 256h51.2v51.2h-51.2zM665.6 256h-51.2v51.2h51.2z" fill="#FF4E00" p-id="2629"></path><path d="M409.6 153.6h51.2v51.2h-51.2zM614.4 153.6h-51.2v51.2h51.2z" fill="#FFDE00" p-id="2630"></path><path d="M460.8 51.2h51.2v51.2h-51.2zM563.2 51.2h-51.2v51.2h51.2z" fill="#FFF3A4" p-id="2631"></path><path d="M460.8 153.6h51.2v51.2h-51.2zM563.2 153.6h-51.2v51.2h51.2z" fill="#FFDE00" p-id="2632"></path><path d="M460.8 256h51.2v51.2h-51.2zM563.2 256h-51.2v51.2h51.2z" fill="#FF8200" p-id="2633"></path><path d="M307.2 307.2h51.2v51.2h-51.2zM716.8 307.2h-51.2v51.2h51.2zM307.2 358.4h51.2v51.2h-51.2zM716.8 358.4h-51.2v51.2h51.2z" fill="#FF4E00" p-id="2634"></path><path d="M204.8 409.6h51.2v51.2h-51.2zM819.2 409.6h-51.2v51.2h51.2z" fill="#FF8200" p-id="2635"></path><path d="M102.4 460.8h51.2v51.2H102.4zM921.6 460.8h-51.2v51.2h51.2zM102.4 512h51.2v51.2H102.4zM921.6 512h-51.2v51.2h51.2z" fill="#FFDE00" p-id="2636"></path><path d="M204.8 460.8h51.2v51.2h-51.2zM819.2 460.8h-51.2v51.2h51.2zM204.8 512h51.2v51.2h-51.2zM819.2 512h-51.2v51.2h51.2zM204.8 563.2h51.2v51.2h-51.2zM819.2 563.2h-51.2v51.2h51.2z" fill="#FF8200" p-id="2637"></path><path d="M307.2 614.4h51.2v51.2h-51.2zM716.8 614.4h-51.2v51.2h51.2z" fill="#FF4E00" p-id="2638"></path><path d="M204.8 665.6h51.2v51.2h-51.2zM819.2 665.6h-51.2v51.2h51.2zM204.8 716.8h51.2v51.2h-51.2zM819.2 716.8h-51.2v51.2h51.2z" fill="#FF8200" p-id="2639"></path><path d="M153.6 768h51.2v51.2h-51.2zM870.4 768h-51.2v51.2h51.2zM153.6 819.2h51.2v51.2h-51.2zM870.4 819.2h-51.2v51.2h51.2z" fill="#FFDE00" p-id="2640"></path><path d="M153.6 870.4h51.2v51.2h-51.2zM870.4 870.4h-51.2v51.2h51.2z" fill="#FFF3A4" p-id="2641"></path><path d="M307.2 665.6h51.2v51.2h-51.2zM716.8 665.6h-51.2v51.2h51.2z" fill="#FF4E00" p-id="2642"></path><path d="M307.2 716.8h51.2v51.2h-51.2zM716.8 716.8h-51.2v51.2h51.2zM256 768h51.2v51.2h-51.2zM768 768h-51.2v51.2h51.2z" fill="#FF8200" p-id="2643"></path><path d="M256 819.2h51.2v51.2h-51.2zM768 819.2h-51.2v51.2h51.2z" fill="#FFDE00" p-id="2644"></path><path d="M358.4 665.6h51.2v51.2h-51.2zM665.6 665.6h-51.2v51.2h51.2zM460.8 665.6h51.2v51.2h-51.2zM563.2 665.6h-51.2v51.2h51.2z" fill="#FF4E00" p-id="2645"></path><path d="M409.6 768h51.2v51.2h-51.2zM614.4 768h-51.2v51.2h51.2zM460.8 768h51.2v51.2h-51.2zM563.2 768h-51.2v51.2h51.2z" fill="#FF8200" p-id="2646"></path><path d="M460.8 870.4h51.2v51.2h-51.2zM563.2 870.4h-51.2v51.2h51.2z" fill="#FFDE00" p-id="2647"></path><path d="M358.4 716.8h51.2v51.2h-51.2zM665.6 716.8h-51.2v51.2h51.2z" fill="#FF4E00" p-id="2648"></path><path d="M460.8 716.8h51.2v51.2h-51.2zM563.2 716.8h-51.2v51.2h51.2z" fill="#FF8200" p-id="2649"></path><path d="M409.6 819.2h51.2v51.2h-51.2zM614.4 819.2h-51.2v51.2h51.2zM460.8 819.2h51.2v51.2h-51.2zM563.2 819.2h-51.2v51.2h51.2z" fill="#FFDE00" p-id="2650"></path><path d="M460.8 921.6h51.2v51.2h-51.2zM563.2 921.6h-51.2v51.2h51.2z" fill="#FFF3A4" p-id="2651"></path><path d="M307.2 768h51.2v51.2h-51.2zM716.8 768h-51.2v51.2h51.2zM307.2 819.2h51.2v51.2h-51.2zM716.8 819.2h-51.2v51.2h51.2zM307.2 460.8h51.2v51.2h-51.2zM716.8 460.8h-51.2v51.2h51.2zM307.2 512h51.2v51.2h-51.2zM716.8 512h-51.2v51.2h51.2z" fill="#FF8200" p-id="2652"></path><path d="M358.4 307.2h51.2v51.2h-51.2zM665.6 307.2h-51.2v51.2h51.2z" fill="#FF4E00" p-id="2653"></path><path d="M409.6 204.8h51.2v51.2h-51.2zM614.4 204.8h-51.2v51.2h51.2z" fill="#FF8200" p-id="2654"></path><path d="M460.8 102.4h51.2v51.2h-51.2zM563.2 102.4h-51.2v51.2h51.2z" fill="#FFDE00" p-id="2655"></path><path d="M460.8 204.8h51.2v51.2h-51.2zM563.2 204.8h-51.2v51.2h51.2z" fill="#FF8200" p-id="2656"></path><path d="M460.8 307.2h51.2v51.2h-51.2zM563.2 307.2h-51.2v51.2h51.2z" fill="#FF4E00" p-id="2657"></path><path d="M51.2 153.6h51.2v51.2H51.2zM972.8 153.6h-51.2v51.2h51.2zM102.4 256h51.2v51.2H102.4zM921.6 256h-51.2v51.2h51.2zM358.4 153.6h51.2v51.2h-51.2zM665.6 153.6h-51.2v51.2h51.2zM409.6 102.4h51.2v51.2h-51.2zM614.4 102.4h-51.2v51.2h51.2zM409.6 51.2h51.2v51.2h-51.2zM614.4 51.2h-51.2v51.2h51.2zM460.8 0h51.2v51.2h-51.2zM563.2 0h-51.2v51.2h51.2zM51.2 204.8h51.2v51.2H51.2zM972.8 204.8h-51.2v51.2h51.2zM102.4 307.2h51.2v51.2H102.4zM921.6 307.2h-51.2v51.2h51.2zM358.4 204.8h51.2v51.2h-51.2zM665.6 204.8h-51.2v51.2h51.2zM153.6 358.4h51.2v51.2h-51.2zM870.4 358.4h-51.2v51.2h51.2zM204.8 358.4h51.2v51.2h-51.2zM819.2 358.4h-51.2v51.2h51.2zM102.4 409.6h51.2v51.2H102.4zM921.6 409.6h-51.2v51.2h51.2zM102.4 563.2h51.2v51.2H102.4zM921.6 563.2h-51.2v51.2h51.2zM153.6 614.4h51.2v51.2h-51.2zM870.4 614.4h-51.2v51.2h51.2zM256 563.2h51.2v51.2h-51.2zM768 563.2h-51.2v51.2h51.2zM256 409.6h51.2v51.2h-51.2zM768 409.6h-51.2v51.2h51.2zM204.8 614.4h51.2v51.2h-51.2zM819.2 614.4h-51.2v51.2h51.2zM307.2 563.2h51.2v51.2h-51.2zM716.8 563.2h-51.2v51.2h51.2zM307.2 409.6h51.2v51.2h-51.2zM716.8 409.6h-51.2v51.2h51.2zM358.4 358.4h51.2v51.2h-51.2z" fill="#FFFFFF" p-id="2658"></path><path d="M665.6 358.4h-51.2v51.2h51.2zM409.6 358.4h51.2v51.2h-51.2z" fill="#FFF3A4" p-id="2659"></path><path d="M614.4 358.4h-51.2v51.2h51.2zM409.6 256h51.2v51.2h-51.2zM614.4 256h-51.2v51.2h51.2zM460.8 358.4h51.2v51.2h-51.2z" fill="#FFFFFF" p-id="2660"></path><path d="M563.2 358.4h-51.2v51.2h51.2zM358.4 409.6h51.2v51.2h-51.2z" fill="#FFF3A4" p-id="2661"></path><path d="M665.6 409.6h-51.2v51.2h51.2zM409.6 409.6h51.2v51.2h-51.2z" fill="#FFFFFF" p-id="2662"></path><path d="M614.4 409.6h-51.2v51.2h51.2z" fill="#FFF3A4" p-id="2663"></path><path d="M409.6 307.2h51.2v51.2h-51.2zM614.4 307.2h-51.2v51.2h51.2z" fill="#FFFFFF" p-id="2664"></path><path d="M460.8 409.6h51.2v51.2h-51.2z" fill="#FFF3A4" p-id="2665"></path><path d="M563.2 409.6h-51.2v51.2h51.2zM358.4 460.8h51.2v51.2h-51.2z" fill="#FFFFFF" p-id="2666"></path><path d="M665.6 460.8h-51.2v51.2h51.2zM409.6 460.8h51.2v51.2h-51.2z" fill="#FFF3A4" p-id="2667"></path><path d="M614.4 460.8h-51.2v51.2h51.2zM460.8 460.8h51.2v51.2h-51.2z" fill="#FFFFFF" p-id="2668"></path><path d="M563.2 460.8h-51.2v51.2h51.2zM358.4 512h51.2v51.2h-51.2z" fill="#FFF3A4" p-id="2669"></path><path d="M665.6 512h-51.2v51.2h51.2zM409.6 512h51.2v51.2h-51.2z" fill="#FFFFFF" p-id="2670"></path><path d="M614.4 512h-51.2v51.2h51.2zM460.8 512h51.2v51.2h-51.2z" fill="#FFF3A4" p-id="2671"></path><path d="M563.2 512h-51.2v51.2h51.2zM358.4 563.2h51.2v51.2h-51.2z" fill="#FFFFFF" p-id="2672"></path><path d="M665.6 563.2h-51.2v51.2h51.2zM409.6 563.2h51.2v51.2h-51.2z" fill="#FFF3A4" p-id="2673"></path><path d="M614.4 563.2h-51.2v51.2h51.2zM409.6 665.6h51.2v51.2h-51.2zM614.4 665.6h-51.2v51.2h51.2zM460.8 563.2h51.2v51.2h-51.2z" fill="#FFFFFF" p-id="2674"></path><path d="M563.2 563.2h-51.2v51.2h51.2zM358.4 614.4h51.2v51.2h-51.2z" fill="#FFF3A4" p-id="2675"></path><path d="M665.6 614.4h-51.2v51.2h51.2zM409.6 614.4h51.2v51.2h-51.2z" fill="#FFFFFF" p-id="2676"></path><path d="M614.4 614.4h-51.2v51.2h51.2z" fill="#FFF3A4" p-id="2677"></path><path d="M409.6 716.8h51.2v51.2h-51.2zM614.4 716.8h-51.2v51.2h51.2zM358.4 768h51.2v51.2h-51.2zM665.6 768h-51.2v51.2h51.2z" fill="#FFFFFF" p-id="2678"></path><path d="M460.8 614.4h51.2v51.2h-51.2z" fill="#FFF3A4" p-id="2679"></path><path d="M563.2 614.4h-51.2v51.2h51.2zM102.4 665.6h51.2v51.2H102.4zM921.6 665.6h-51.2v51.2h51.2zM102.4 716.8h51.2v51.2H102.4zM921.6 716.8h-51.2v51.2h51.2zM51.2 768h51.2v51.2H51.2zM972.8 768h-51.2v51.2h51.2zM51.2 819.2h51.2v51.2H51.2zM972.8 819.2h-51.2v51.2h51.2zM102.4 870.4h51.2v51.2H102.4zM921.6 870.4h-51.2v51.2h51.2zM153.6 921.6h51.2v51.2h-51.2zM870.4 921.6h-51.2v51.2h51.2zM256 870.4h51.2v51.2h-51.2zM768 870.4h-51.2v51.2h51.2zM204.8 921.6h51.2v51.2h-51.2zM819.2 921.6h-51.2v51.2h51.2zM307.2 870.4h51.2v51.2h-51.2zM716.8 870.4h-51.2v51.2h51.2zM358.4 819.2h51.2v51.2h-51.2zM665.6 819.2h-51.2v51.2h51.2zM409.6 870.4h51.2v51.2h-51.2zM614.4 870.4h-51.2v51.2h51.2zM409.6 921.6h51.2v51.2h-51.2zM614.4 921.6h-51.2v51.2h51.2zM460.8 972.8h51.2v51.2h-51.2zM563.2 972.8h-51.2v51.2h51.2zM51.2 409.6h51.2v51.2H51.2zM972.8 409.6h-51.2v51.2h51.2zM51.2 563.2h51.2v51.2H51.2zM972.8 563.2h-51.2v51.2h51.2zM0 460.8h51.2v51.2H0zM1024 460.8h-51.2v51.2h51.2zM0 512h51.2v51.2H0zM1024 512h-51.2v51.2h51.2zM256 102.4h51.2v51.2h-51.2zM768 102.4h-51.2v51.2h51.2zM204.8 51.2h51.2v51.2h-51.2zM819.2 51.2h-51.2v51.2h51.2zM307.2 102.4h51.2v51.2h-51.2zM716.8 102.4h-51.2v51.2h51.2z" fill="#FFFFFF" p-id="2680"></path></svg>