<?xml version="1.0" standalone="no"?><!DOCTYPE svg PUBLIC "-//W3C//DTD SVG 1.1//EN" "http://www.w3.org/Graphics/SVG/1.1/DTD/svg11.dtd"><svg t="1741849410774" class="icon" viewBox="0 0 1093 1024" version="1.1" xmlns="http://www.w3.org/2000/svg" p-id="3370" xmlns:xlink="http://www.w3.org/1999/xlink" width="213.4765625" height="200"><path d="M409.6 0h68.266165v68.266165H409.6zM273.058635 68.264659h68.266165v68.266165h-68.266165zM136.541365 204.8h68.266164v68.266165H136.541365z" fill="#231815" p-id="3371"></path><path d="M204.8 204.8h68.266165v68.266165H204.8z" fill="#61AD18" p-id="3372"></path><path d="M0 409.6h68.266165v68.266165H0z" fill="#231815" p-id="3373"></path><path d="M68.270682 409.6h68.266165v68.266165H68.270682zM136.541365 409.6h68.266164v68.266165H136.541365z" fill="#FFFFFF" p-id="3374"></path><path d="M204.8 409.6h68.266165v68.266165H204.8z" fill="#FFFFFF" p-id="3375"></path><path d="M0 546.132329h68.266165v68.266165H0z" fill="#231815" p-id="3376"></path><path d="M68.270682 546.132329h68.266165v68.266165H68.270682z" fill="#FFFFFF" p-id="3377"></path><path d="M136.541365 546.132329h68.266164v68.266165H136.541365z" fill="#61AD18" p-id="3378"></path><path d="M204.8 546.132329h68.266165v68.266165H204.8z" fill="#61AD18" p-id="3379"></path><path d="M1024 546.132329h68.266165v68.266165H1024z" fill="#231815" p-id="3380"></path><path d="M955.729318 546.132329h68.266164v68.266165h-68.266164z" fill="#61AD18" p-id="3381"></path><path d="M887.458635 546.132329h68.266165v68.266165h-68.266165z" fill="#FFFFFF" p-id="3382"></path><path d="M819.2 546.132329h68.266165v68.266165H819.2z" fill="#FFFFFF" p-id="3383"></path><path d="M955.729318 409.6h68.266164v68.266165h-68.266164z" fill="#231815" p-id="3384"></path><path d="M887.458635 409.6h68.266165v68.266165h-68.266165z" fill="#FFFFFF" p-id="3385"></path><path d="M819.2 409.6h68.266165v68.266165H819.2z" fill="#FFFFFF" p-id="3386"></path><path d="M887.458635 273.067671h68.266165v68.266164h-68.266165z" fill="#231815" p-id="3387"></path><path d="M819.2 273.067671h68.266165v68.266164H819.2zM273.058635 136.532329h68.266165v68.266165h-68.266165zM273.058635 204.8h68.266165v68.266165h-68.266165zM273.058635 273.067671h68.266165v68.266164h-68.266165z" fill="#61AD18" p-id="3388"></path><path d="M273.058635 341.332329h68.266165v68.266165h-68.266165zM273.058635 409.6h68.266165v68.266165h-68.266165z" fill="#61AD18" p-id="3389"></path><path d="M273.058635 477.864659h68.266165v68.266165h-68.266165zM273.058635 546.132329h68.266165v68.266165h-68.266165z" fill="#61AD18" p-id="3390"></path><path d="M273.058635 614.4h68.266165v68.266165h-68.266165zM273.058635 682.667671h68.266165v68.266164h-68.266165z" fill="#231815" p-id="3391"></path><path d="M273.058635 750.932329h68.266165v68.266165h-68.266165z" fill="#FFFFFF" p-id="3392"></path><path d="M273.058635 819.2h68.266165v68.266165h-68.266165z" fill="#FFDFD2" p-id="3393"></path><path d="M273.058635 887.464659h68.266165v68.266165h-68.266165zM136.541365 273.067671h68.266164v68.266164H136.541365z" fill="#231815" p-id="3394"></path><path d="M204.8 273.067671h68.266165v68.266164H204.8z" fill="#61AD18" p-id="3395"></path><path d="M0 477.864659h68.266165v68.266165H0z" fill="#231815" p-id="3396"></path><path d="M68.270682 477.864659h68.266165v68.266165H68.270682zM136.541365 477.864659h68.266164v68.266165H136.541365z" fill="#FFFFFF" p-id="3397"></path><path d="M204.8 477.864659h68.266165v68.266165H204.8z" fill="#61AD18" p-id="3398"></path><path d="M1024 477.864659h68.266165v68.266165H1024z" fill="#231815" p-id="3399"></path><path d="M955.729318 477.864659h68.266164v68.266165h-68.266164z" fill="#61AD18" p-id="3400"></path><path d="M887.458635 477.864659h68.266165v68.266165h-68.266165z" fill="#FFFFFF" p-id="3401"></path><path d="M819.2 477.864659h68.266165v68.266165H819.2z" fill="#FFFFFF" p-id="3402"></path><path d="M955.729318 341.332329h68.266164v68.266165h-68.266164z" fill="#231815" p-id="3403"></path><path d="M887.458635 341.332329h68.266165v68.266165h-68.266165z" fill="#61AD18" p-id="3404"></path><path d="M819.2 341.332329h68.266165v68.266165H819.2z" fill="#FFFFFF" p-id="3405"></path><path d="M887.458635 204.8h68.266165v68.266165h-68.266165z" fill="#231815" p-id="3406"></path><path d="M819.2 204.8h68.266165v68.266165H819.2z" fill="#61AD18" p-id="3407"></path><path d="M0 614.4h68.266165v68.266165H0z" fill="#231815" p-id="3408"></path><path d="M68.270682 614.4h68.266165v68.266165H68.270682zM136.541365 614.4h68.266164v68.266165H136.541365z" fill="#61AD18" p-id="3409"></path><path d="M204.8 614.4h68.266165v68.266165H204.8z" fill="#61AD18" p-id="3410"></path><path d="M1024 614.4h68.266165v68.266165H1024z" fill="#231815" p-id="3411"></path><path d="M955.729318 614.4h68.266164v68.266165h-68.266164zM887.458635 614.4h68.266165v68.266165h-68.266165z" fill="#61AD18" p-id="3412"></path><path d="M819.2 614.4h68.266165v68.266165H819.2z" fill="#FFFFFF" p-id="3413"></path><path d="M204.8 819.2h68.266165v68.266165H204.8zM819.2 819.2h68.266165v68.266165H819.2zM0 682.667671h68.266165v68.266164H0z" fill="#231815" p-id="3414"></path><path d="M68.270682 682.667671h68.266165v68.266164H68.270682z" fill="#61AD18" p-id="3415"></path><path d="M136.541365 682.667671h68.266164v68.266164H136.541365z" fill="#231815" p-id="3416"></path><path d="M204.8 682.667671h68.266165v68.266164H204.8zM1024 682.667671h68.266165v68.266164H1024z" fill="#231815" p-id="3417"></path><path d="M955.729318 682.667671h68.266164v68.266164h-68.266164z" fill="#61AD18" p-id="3418"></path><path d="M887.458635 682.667671h68.266165v68.266164h-68.266165z" fill="#231815" p-id="3419"></path><path d="M819.2 682.667671h68.266165v68.266164H819.2zM204.8 887.464659h68.266165v68.266165H204.8zM819.2 887.464659h68.266165v68.266165H819.2zM273.058635 955.735341h68.266165v68.266165h-68.266165zM477.870682 955.735341h68.266165v68.266165h-68.266165zM68.270682 750.932329h68.266165v68.266165H68.270682z" fill="#231815" p-id="3420"></path><path d="M887.458635 750.932329h68.266165v68.266165h-68.266165z" fill="#231815" p-id="3421"></path><path d="M819.2 750.932329h68.266165v68.266165H819.2zM341.329318 955.735341h68.266164v68.266165h-68.266164zM546.129318 955.735341h68.266164v68.266165h-68.266164zM682.670682 955.735341h68.266165v68.266165h-68.266165zM136.541365 750.932329h68.266164v68.266165H136.541365z" fill="#231815" p-id="3422"></path><path d="M204.8 750.932329h68.266165v68.266165H204.8z" fill="#FFFFFF" p-id="3423"></path><path d="M955.729318 750.932329h68.266164v68.266165h-68.266164zM409.6 955.735341h68.266165v68.266165H409.6zM614.4 955.735341h68.266165v68.266165H614.4zM750.941365 955.735341h68.266164v68.266165h-68.266164zM68.270682 341.332329h68.266165v68.266165H68.270682z" fill="#231815" p-id="3424"></path><path d="M136.541365 341.332329h68.266164v68.266165H136.541365z" fill="#FFFFFF" p-id="3425"></path><path d="M204.8 341.332329h68.266165v68.266165H204.8z" fill="#FFFFFF" p-id="3426"></path><path d="M204.8 136.532329h68.266165v68.266165H204.8z" fill="#231815" p-id="3427"></path><path d="M546.129318 68.264659h68.266164v68.266165h-68.266164zM546.129318 136.532329h68.266164v68.266165h-68.266164z" fill="#61AD18" p-id="3428"></path><path d="M546.129318 204.8h68.266164v68.266165h-68.266164zM546.129318 273.067671h68.266164v68.266164h-68.266164z" fill="#FFFFFF" p-id="3429"></path><path d="M546.129318 341.332329h68.266164v68.266165h-68.266164zM546.129318 409.6h68.266164v68.266165h-68.266164z" fill="#61AD18" p-id="3430"></path><path d="M546.129318 477.864659h68.266164v68.266165h-68.266164zM546.129318 546.132329h68.266164v68.266165h-68.266164z" fill="#61AD18" p-id="3431"></path><path d="M546.129318 614.4h68.266164v68.266165h-68.266164z" fill="#231815" p-id="3432"></path><path d="M546.129318 682.667671h68.266164v68.266164h-68.266164z" fill="#FFDFD2" p-id="3433"></path><path d="M546.129318 750.932329h68.266164v68.266165h-68.266164zM546.129318 819.2h68.266164v68.266165h-68.266164z" fill="#FFFFFF" p-id="3434"></path><path d="M546.129318 887.464659h68.266164v68.266165h-68.266164z" fill="#FFDFD2" p-id="3435"></path><path d="M477.870682 0h68.266165v68.266165h-68.266165zM341.329318 68.264659h68.266164v68.266165h-68.266164z" fill="#231815" p-id="3436"></path><path d="M341.329318 136.532329h68.266164v68.266165h-68.266164z" fill="#61AD18" p-id="3437"></path><path d="M341.329318 204.8h68.266164v68.266165h-68.266164zM341.329318 273.067671h68.266164v68.266164h-68.266164z" fill="#FFFFFF" p-id="3438"></path><path d="M341.329318 341.332329h68.266164v68.266165h-68.266164zM341.329318 409.6h68.266164v68.266165h-68.266164z" fill="#61AD18" p-id="3439"></path><path d="M341.329318 477.864659h68.266164v68.266165h-68.266164zM341.329318 546.132329h68.266164v68.266165h-68.266164z" fill="#61AD18" p-id="3440"></path><path d="M341.329318 614.4h68.266164v68.266165h-68.266164z" fill="#231815" p-id="3441"></path><path d="M341.329318 682.667671h68.266164v68.266164h-68.266164z" fill="#FFDFD2" p-id="3442"></path><path d="M341.329318 750.932329h68.266164v68.266165h-68.266164zM341.329318 819.2h68.266164v68.266165h-68.266164z" fill="#FFFFFF" p-id="3443"></path><path d="M341.329318 887.464659h68.266164v68.266165h-68.266164z" fill="#FFDFD2" p-id="3444"></path><path d="M614.4 68.264659h68.266165v68.266165H614.4zM614.4 136.532329h68.266165v68.266165H614.4zM614.4 204.8h68.266165v68.266165H614.4zM614.4 273.067671h68.266165v68.266164H614.4z" fill="#61AD18" p-id="3445"></path><path d="M614.4 341.332329h68.266165v68.266165H614.4z" fill="#61AD18" p-id="3446"></path><path d="M614.4 409.6h68.266165v68.266165H614.4z" fill="#FFFFFF" p-id="3447"></path><path d="M614.4 477.864659h68.266165v68.266165H614.4zM614.4 546.132329h68.266165v68.266165H614.4z" fill="#FFFFFF" p-id="3448"></path><path d="M614.4 614.4h68.266165v68.266165H614.4zM614.4 682.667671h68.266165v68.266164H614.4z" fill="#231815" p-id="3449"></path><path d="M614.4 750.932329h68.266165v68.266165H614.4z" fill="#231815" p-id="3450"></path><path d="M614.4 819.2h68.266165v68.266165H614.4z" fill="#FFFFFF" p-id="3451"></path><path d="M614.4 887.464659h68.266165v68.266165H614.4z" fill="#FFDFD2" p-id="3452"></path><path d="M546.129318 0h68.266164v68.266165h-68.266164z" fill="#231815" p-id="3453"></path><path d="M409.6 68.264659h68.266165v68.266165H409.6z" fill="#61AD18" p-id="3454"></path><path d="M409.6 136.532329h68.266165v68.266165H409.6zM409.6 204.8h68.266165v68.266165H409.6zM409.6 273.067671h68.266165v68.266164H409.6z" fill="#FFFFFF" p-id="3455"></path><path d="M409.6 341.332329h68.266165v68.266165H409.6z" fill="#FFFFFF" p-id="3456"></path><path d="M409.6 409.6h68.266165v68.266165H409.6z" fill="#61AD18" p-id="3457"></path><path d="M409.6 477.864659h68.266165v68.266165H409.6zM409.6 546.132329h68.266165v68.266165H409.6z" fill="#61AD18" p-id="3458"></path><path d="M409.6 614.4h68.266165v68.266165H409.6zM409.6 682.667671h68.266165v68.266164H409.6z" fill="#231815" p-id="3459"></path><path d="M409.6 750.932329h68.266165v68.266165H409.6z" fill="#231815" p-id="3460"></path><path d="M409.6 819.2h68.266165v68.266165H409.6z" fill="#FFFFFF" p-id="3461"></path><path d="M409.6 887.464659h68.266165v68.266165H409.6z" fill="#FFDFD2" p-id="3462"></path><path d="M682.670682 68.264659h68.266165v68.266165h-68.266165z" fill="#231815" p-id="3463"></path><path d="M682.670682 136.532329h68.266165v68.266165h-68.266165z" fill="#FFFFFF" p-id="3464"></path><path d="M682.670682 204.8h68.266165v68.266165h-68.266165zM682.670682 273.067671h68.266165v68.266164h-68.266165z" fill="#61AD18" p-id="3465"></path><path d="M682.670682 341.332329h68.266165v68.266165h-68.266165zM682.670682 409.6h68.266165v68.266165h-68.266165z" fill="#FFFFFF" p-id="3466"></path><path d="M682.670682 477.864659h68.266165v68.266165h-68.266165zM682.670682 546.132329h68.266165v68.266165h-68.266165z" fill="#FFFFFF" p-id="3467"></path><path d="M682.670682 614.4h68.266165v68.266165h-68.266165z" fill="#231815" p-id="3468"></path><path d="M682.670682 682.667671h68.266165v68.266164h-68.266165z" fill="#FFDFD2" p-id="3469"></path><path d="M682.670682 750.932329h68.266165v68.266165h-68.266165zM682.670682 819.2h68.266165v68.266165h-68.266165z" fill="#FFFFFF" p-id="3470"></path><path d="M682.670682 887.464659h68.266165v68.266165h-68.266165z" fill="#FFDFD2" p-id="3471"></path><path d="M614.4 0h68.266165v68.266165H614.4z" fill="#231815" p-id="3472"></path><path d="M477.870682 68.264659h68.266165v68.266165h-68.266165z" fill="#61AD18" p-id="3473"></path><path d="M477.870682 136.532329h68.266165v68.266165h-68.266165zM477.870682 204.8h68.266165v68.266165h-68.266165zM477.870682 273.067671h68.266165v68.266164h-68.266165z" fill="#FFFFFF" p-id="3474"></path><path d="M477.870682 341.332329h68.266165v68.266165h-68.266165z" fill="#FFFFFF" p-id="3475"></path><path d="M477.870682 409.6h68.266165v68.266165h-68.266165z" fill="#61AD18" p-id="3476"></path><path d="M477.870682 477.864659h68.266165v68.266165h-68.266165zM477.870682 546.132329h68.266165v68.266165h-68.266165z" fill="#61AD18" p-id="3477"></path><path d="M477.870682 614.4h68.266165v68.266165h-68.266165z" fill="#231815" p-id="3478"></path><path d="M477.870682 682.667671h68.266165v68.266164h-68.266165z" fill="#FFDFD2" p-id="3479"></path><path d="M477.870682 750.932329h68.266165v68.266165h-68.266165zM477.870682 819.2h68.266165v68.266165h-68.266165z" fill="#FFFFFF" p-id="3480"></path><path d="M477.870682 887.464659h68.266165v68.266165h-68.266165z" fill="#FFDFD2" p-id="3481"></path><path d="M750.941365 68.264659h68.266164v68.266165h-68.266164z" fill="#231815" p-id="3482"></path><path d="M750.941365 136.532329h68.266164v68.266165h-68.266164z" fill="#FFFFFF" p-id="3483"></path><path d="M750.941365 204.8h68.266164v68.266165h-68.266164zM750.941365 273.067671h68.266164v68.266164h-68.266164z" fill="#61AD18" p-id="3484"></path><path d="M750.941365 341.332329h68.266164v68.266165h-68.266164zM750.941365 409.6h68.266164v68.266165h-68.266164z" fill="#FFFFFF" p-id="3485"></path><path d="M750.941365 477.864659h68.266164v68.266165h-68.266164zM750.941365 546.132329h68.266164v68.266165h-68.266164z" fill="#FFFFFF" p-id="3486"></path><path d="M750.941365 614.4h68.266164v68.266165h-68.266164zM750.941365 682.667671h68.266164v68.266164h-68.266164z" fill="#231815" p-id="3487"></path><path d="M750.941365 750.932329h68.266164v68.266165h-68.266164z" fill="#FFFFFF" p-id="3488"></path><path d="M750.941365 819.2h68.266164v68.266165h-68.266164z" fill="#FFDFD2" p-id="3489"></path><path d="M750.941365 887.464659h68.266164v68.266165h-68.266164zM819.2 136.532329h68.266165v68.266165H819.2z" fill="#231815" p-id="3490"></path></svg>