<?xml version="1.0" standalone="no"?><!DOCTYPE svg PUBLIC "-//W3C//DTD SVG 1.1//EN" "http://www.w3.org/Graphics/SVG/1.1/DTD/svg11.dtd"><svg t="1741860489733" class="icon" viewBox="0 0 1039 1024" version="1.1" xmlns="http://www.w3.org/2000/svg" p-id="3509" xmlns:xlink="http://www.w3.org/1999/xlink" width="202.9296875" height="200"><path d="M12.675879 585.169455L597.845333 0h438.830546l-1024 1024V585.169455z" fill="#FACB7C" p-id="3510"></path><path d="M107.985455 657.842424l12.241454 12.241455 88.327758-88.343273 18.432 18.432-82.152728 82.152727 11.993213 11.977697 82.137212-82.152727 19.238788 19.223273-88.870788 88.855272 12.101818 12.117334 88.870788-88.855273 4.608 4.608 12.629333-12.644848-78.584242-78.599758-44.109576 44.109576-40.680727-40.680727-13.156849 13.156848 40.680727 40.680727L107.985455 657.842424z m54.768484-124.803879c4.468364 12.365576 7.757576 25.925818 9.603879 40.92897l17.37697-5.259636a172.885333 172.885333 0 0 0-10.131394-41.735758l-16.86497 6.050909z m-77.280969 79.375516l-4.096 17.252848c15.406545 1.970424 28.578909 4.608 39.641212 7.757576l3.413333-17.904485c-10.395152-3.025455-23.427879-5.275152-38.958545-7.105939zM285.044364 394.922667c2.901333 8.688485 5.135515 17.252848 6.593939 26.065454L267.791515 444.819394a206.180848 206.180848 0 0 0-23.179636-7.105939l-11.046788 15.266909c6.702545 1.194667 13.684364 2.901333 20.790303 5.275151l-34.226424 34.226424 12.101818 12.101819 118.628848-118.613334-12.101818-12.101818-33.326545 33.295515a130.110061 130.110061 0 0 0-4.080485-20.138666l-16.32194 7.912727z m86.496969 156.796121c8.300606-8.285091 7.369697-17.640727-2.761697-27.772121l-69.771636-69.771637-50.160485 50.160485 86.109091 86.093576 12.225939-12.25697-27.911757-27.896242 25.801697-25.801697 8.828121 8.812606c4.080485 4.096 4.608 7.773091 1.706667 10.674424l-9.867637 9.076364 15.530667 8.952242 10.27103-10.27103z m-63.317333-12.505212l-12.25697-12.241455 25.817212-25.801697 12.241455 12.25697-25.801697 25.786182z m-23.303758-23.303758l-12.256969-12.241454 25.817212-25.801697 12.241454 12.256969-25.801697 25.786182z m137.572849-15.918545c8.548848-8.564364 8.424727-17.37697-0.527515-26.329212l-73.991758-74.007273-12.505212 12.520727 70.826667 70.826667c3.568485 3.568485 3.816727 6.981818 0.667151 10.131394-5.275152 5.275152-10.798545 10.27103-16.864969 15.282424l14.615272 9.340121 17.780364-17.764848z m-104.261818-50.827637l56.211394 56.226909 12.101818-12.117333-56.211394-56.211394-12.101818 12.101818zM384.449939 300.280242l33.823031 33.823031-11.046788 11.062303-31.20097-31.20097-12.25697 12.25697 48.453819 48.438303c26.732606 26.996364 43.318303 49.369212 50.160484 67.273697l17.640728-1.318788c-5.011394-15.546182-16.197818-33.82303-33.823031-54.644364l13.684364-13.684363 45.816242 45.816242 12.241455-12.25697-57.793939-57.778424-25.289697 25.274182c-3.289212-3.568485-6.702545-7.245576-10.395152-10.922667l-4.995879-5.011394 29.618425-29.633939-12.25697-12.225939-6.314667 6.314666-33.82303-33.82303-12.25697 12.225939z m84.386909 11.17091l3.025455-3.00994c19.48703 14.211879 38.322424 23.815758 56.738909 28.827152a118.81503 118.81503 0 0 1-4.344242 41.999515l16.989091 5.12c4.344242-14.599758 6.050909-29.21503 5.259636-43.690667a99.87103 99.87103 0 0 0 42.511515-4.344242l-4.732121-17.128728a90.14303 90.14303 0 0 1-40.277333 3.428849c-4.220121-20.014545-13.824-40.153212-28.315152-60.431515l-10.658909-10.658909-48.050424 48.050424-17.501091-17.501091c17.904485-19.48703 32.116364-38.974061 42.914909-58.724848l-17.252849-5.12c-11.326061 21.845333-27.244606 43.287273-47.786666 64.620606l51.075879 51.091394c21.333333 22.372848 35.157333 43.03903 40.96 61.998545l17.625212 0.527515c-6.578424-23.427879-22.372848-48.174545-47.135031-73.976242l-11.046788-11.062303z m14.211879-14.211879l21.860849-21.845334a136.688485 136.688485 0 0 1 20.402424 43.039031c-13.699879-4.204606-27.772121-11.450182-42.263273-21.193697zM526.754909 201.402182l11.977697 11.977697 40.556606-40.541091c12.365576 31.340606 15.266909 64.496485 8.424727 99.265939l18.959516 4.468364c5.275152-39.501576-0.527515-77.420606-17.640728-113.477818l0.124121-0.139637 48.453819 48.453819-26.065455 26.065454 11.977697 11.977697 26.065455-26.065454 25.941333 25.941333 12.629333-12.644849-25.925818-25.925818 27.120485-27.120485-11.993212-11.993212-27.120485 27.120485-48.438303-48.438303 0.124121-0.139636c32.395636 14.739394 69.12 20.666182 110.064485 17.640727l-2.234182-19.347394c-36.864 5.787152-69.647515 3.025455-98.086788-8.036848l40.41697-40.41697-11.977697-11.977697-50.284606 50.300121-22.776242-22.776242-12.644849 12.629333 22.776243 22.776242-50.424243 50.424243z" fill="#FFFFFF" p-id="3511"></path></svg>