<?xml version="1.0" standalone="no"?><!DOCTYPE svg PUBLIC "-//W3C//DTD SVG 1.1//EN" "http://www.w3.org/Graphics/SVG/1.1/DTD/svg11.dtd"><svg t="1741855692671" class="icon" viewBox="0 0 1024 1024" version="1.1" xmlns="http://www.w3.org/2000/svg" p-id="2242" xmlns:xlink="http://www.w3.org/1999/xlink" width="200" height="200"><path d="M516.82454 509.733854m-301.216175 301.216175a425.984 425.984 0 1 0 602.43235-602.43235 425.984 425.984 0 1 0-602.43235 602.43235Z" fill="#5A8DFF" p-id="2243"></path><path d="M646.8096 728.5248a266.6496 266.6496 0 0 1-126.8736-36.6592 449.6896 449.6896 0 0 1-186.4192-196.4544 229.3248 229.3248 0 0 1-25.6-99.3792c0-31.2832 8.1408-59.5968 31.5392-81.92 6.7584-6.5024 13.1584-13.4656 20.48-19.6096a27.6992 27.6992 0 0 1 35.84-1.0752 61.952 61.952 0 0 1 7.0144 6.1952q42.5472 42.496 85.0432 84.992c15.36 15.36 15.36 32.3584-0.3072 47.616l-15.36 15.36a21.8112 21.8112 0 0 0-6.3488 19.1488c2.304 20.48 12.6464 37.3248 25.1392 52.8384a147.9168 147.9168 0 0 0 58.0608 45.568 64 64 0 0 0 22.9888 5.4784 30.0032 30.0032 0 0 0 16.7936-6.4512 180.7872 180.7872 0 0 0 16.9472-16.7936 29.952 29.952 0 0 1 45.0048 0q43.6224 43.4688 87.04 87.04c14.9504 15.0528 15.0016 31.2832 0.3584 46.08-4.7616 4.864-9.728 9.472-14.336 14.3872a102.8608 102.8608 0 0 1-77.0048 33.6384z" fill="#FFFFFF" p-id="2244"></path></svg>