<?xml version="1.0" standalone="no"?><!DOCTYPE svg PUBLIC "-//W3C//DTD SVG 1.1//EN" "http://www.w3.org/Graphics/SVG/1.1/DTD/svg11.dtd"><svg t="1741849413589" class="icon" viewBox="0 0 1024 1024" version="1.1" xmlns="http://www.w3.org/2000/svg" p-id="3640" xmlns:xlink="http://www.w3.org/1999/xlink" width="200" height="200"><path d="M444.824094 0h44.521412v44.521412h-44.521412z" fill="#231815" p-id="3641"></path><path d="M444.824094 44.519906h44.521412v44.521412h-44.521412zM444.824094 89.044329h44.521412v44.521412h-44.521412z" fill="#D8192F" p-id="3642"></path><path d="M444.824094 178.088659h44.521412v44.521412h-44.521412zM444.824094 311.652894h44.521412v44.521412h-44.521412z" fill="#231815" p-id="3643"></path><path d="M444.824094 356.1728h44.521412v44.521412h-44.521412zM355.776753 44.519906h44.521412v44.521412h-44.521412z" fill="#231815" p-id="3644"></path><path d="M355.776753 89.044329h44.521412v44.521412h-44.521412z" fill="#D8192F" p-id="3645"></path><path d="M355.776753 133.564235h44.521412v44.521412h-44.521412zM355.776753 178.088659h44.521412v44.521412h-44.521412z" fill="#D8192F" p-id="3646"></path><path d="M355.776753 222.608565h44.521412v44.521411h-44.521412z" fill="#D8192F" p-id="3647"></path><path d="M355.776753 267.129976h44.521412v44.521412h-44.521412zM311.258353 89.044329h44.521412v44.521412H311.258353z" fill="#231815" p-id="3648"></path><path d="M311.258353 133.564235h44.521412v44.521412H311.258353zM311.258353 222.608565h44.521412v44.521411H311.258353zM311.258353 267.129976h44.521412v44.521412H311.258353z" fill="#D8192F" p-id="3649"></path><path d="M311.258353 311.652894h44.521412v44.521412H311.258353z" fill="#231815" p-id="3650"></path><path d="M311.258353 356.1728h44.521412v44.521412H311.258353zM266.741459 133.564235h44.521412v44.521412H266.741459z" fill="#231815" p-id="3651"></path><path d="M266.741459 178.088659h44.521412v44.521412H266.741459z" fill="#D8192F" p-id="3652"></path><path d="M266.741459 222.608565h44.521412v44.521411H266.741459zM266.741459 267.129976h44.521412v44.521412H266.741459zM266.741459 356.1728h44.521412v44.521412H266.741459z" fill="#D8192F" p-id="3653"></path><path d="M222.212518 178.088659h44.521411v44.521412H222.212518z" fill="#231815" p-id="3654"></path><path d="M222.212518 222.608565h44.521411v44.521411H222.212518z" fill="#231815" p-id="3655"></path><path d="M222.212518 267.129976h44.521411v44.521412H222.212518zM222.212518 311.652894h44.521411v44.521412H222.212518z" fill="#D8192F" p-id="3656"></path><path d="M222.212518 356.1728h44.521411v44.521412H222.212518z" fill="#D8192F" p-id="3657"></path><path d="M222.212518 400.697224h44.521411v44.521411H222.212518z" fill="#231815" p-id="3658"></path><path d="M222.212518 445.217129h44.521411v44.521412H222.212518z" fill="#231815" p-id="3659"></path><path d="M266.741459 400.697224h44.521412v44.521411H266.741459z" fill="#D8192F" p-id="3660"></path><path d="M177.694118 267.129976h44.521411v44.521412H177.694118zM177.694118 311.652894h44.521411v44.521412H177.694118z" fill="#231815" p-id="3661"></path><path d="M177.694118 356.1728h44.521411v44.521412H177.694118zM711.952565 89.044329h44.521411v44.521412h-44.521411z" fill="#231815" p-id="3662"></path><path d="M711.952565 133.564235h44.521411v44.521412h-44.521411zM489.340988 0h44.521412v44.521412h-44.521412z" fill="#231815" p-id="3663"></path><path d="M489.340988 89.044329h44.521412v44.521412h-44.521412z" fill="#D8192F" p-id="3664"></path><path d="M489.340988 133.564235h44.521412v44.521412h-44.521412zM489.340988 311.652894h44.521412v44.521412h-44.521412z" fill="#231815" p-id="3665"></path><path d="M489.340988 356.1728h44.521412v44.521412h-44.521412zM533.869929 356.1728h44.521412v44.521412h-44.521412z" fill="#231815" p-id="3666"></path><path d="M578.388329 356.1728h44.521412v44.521412h-44.521412z" fill="#231815" p-id="3667"></path><path d="M622.905224 311.652894h44.521411v44.521412h-44.521411zM667.435671 311.652894h44.521411v44.521412h-44.521411z" fill="#231815" p-id="3668"></path><path d="M711.952565 311.652894h44.521411v44.521412h-44.521411zM756.483012 311.652894h44.521412v44.521412h-44.521412z" fill="#231815" p-id="3669"></path><path d="M800.999906 356.1728h44.521412v44.521412h-44.521412zM800.999906 400.697224h44.521412v44.521411h-44.521412z" fill="#231815" p-id="3670"></path><path d="M756.483012 400.697224h44.521412v44.521411h-44.521412z" fill="#231815" p-id="3671"></path><path d="M756.483012 445.217129h44.521412v44.521412h-44.521412zM711.952565 445.217129h44.521411v44.521412h-44.521411zM711.952565 489.738541h44.521411v44.521412h-44.521411z" fill="#231815" p-id="3672"></path><path d="M667.435671 445.217129h44.521411v44.521412h-44.521411z" fill="#231815" p-id="3673"></path><path d="M667.435671 489.738541h44.521411v44.521412h-44.521411z" fill="#D8192F" p-id="3674"></path><path d="M667.435671 534.261459h44.521411v44.521412h-44.521411zM622.905224 445.217129h44.521411v44.521412h-44.521411z" fill="#231815" p-id="3675"></path><path d="M622.905224 534.261459h44.521411v44.521412h-44.521411z" fill="#D8192F" p-id="3676"></path><path d="M622.905224 578.782871h44.521411v44.521411h-44.521411z" fill="#231815" p-id="3677"></path><path d="M578.388329 578.782871h44.521412v44.521411h-44.521412z" fill="#231815" p-id="3678"></path><path d="M578.388329 534.261459h44.521412v44.521412h-44.521412z" fill="#D8192F" p-id="3679"></path><path d="M578.388329 489.738541h44.521412v44.521412h-44.521412z" fill="#231815" p-id="3680"></path><path d="M533.869929 489.738541h44.521412v44.521412h-44.521412zM489.340988 489.738541h44.521412v44.521412h-44.521412z" fill="#231815" p-id="3681"></path><path d="M444.824094 489.738541h44.521412v44.521412h-44.521412z" fill="#231815" p-id="3682"></path><path d="M400.305694 489.738541h44.521412v44.521412h-44.521412z" fill="#231815" p-id="3683"></path><path d="M355.776753 489.738541h44.521412v44.521412h-44.521412zM355.776753 534.261459h44.521412v44.521412h-44.521412z" fill="#D8192F" p-id="3684"></path><path d="M355.776753 578.782871h44.521412v44.521411h-44.521412z" fill="#231815" p-id="3685"></path><path d="M489.340988 534.261459h44.521412v44.521412h-44.521412zM489.340988 578.782871h44.521412v44.521411h-44.521412z" fill="#D8192F" p-id="3686"></path><path d="M489.340988 623.302776h44.521412v44.521412h-44.521412z" fill="#231815" p-id="3687"></path><path d="M533.869929 534.261459h44.521412v44.521412h-44.521412z" fill="#D8192F" p-id="3688"></path><path d="M533.869929 623.302776h44.521412v44.521412h-44.521412zM355.776753 445.217129h44.521412v44.521412h-44.521412z" fill="#231815" p-id="3689"></path><path d="M311.258353 445.217129h44.521412v44.521412H311.258353zM311.258353 489.738541h44.521412v44.521412H311.258353zM311.258353 534.261459h44.521412v44.521412H311.258353z" fill="#D8192F" p-id="3690"></path><path d="M311.258353 578.782871h44.521412v44.521411H311.258353z" fill="#231815" p-id="3691"></path><path d="M444.824094 534.261459h44.521412v44.521412h-44.521412zM444.824094 578.782871h44.521412v44.521411h-44.521412z" fill="#D8192F" p-id="3692"></path><path d="M444.824094 623.302776h44.521412v44.521412h-44.521412zM421.930165 667.8272h44.521411v44.521412h-44.521411z" fill="#231815" p-id="3693"></path><path d="M421.930165 712.347106h44.521411v44.521412h-44.521411zM421.930165 756.870024h44.521411v44.521411h-44.521411zM421.930165 801.391435h44.521411v44.521412h-44.521411z" fill="#231815" p-id="3694"></path><path d="M421.930165 845.911341h44.521411v44.521412h-44.521411zM421.930165 890.435765h44.521411v44.521411h-44.521411z" fill="#231815" p-id="3695"></path><path d="M421.930165 934.955671h44.521411v44.521411h-44.521411zM421.930165 979.480094h44.521411v44.521412h-44.521411z" fill="#231815" p-id="3696"></path><path d="M377.411765 979.480094h44.521411v44.521412h-44.521411z" fill="#231815" p-id="3697"></path><path d="M377.411765 934.955671h44.521411v44.521411h-44.521411z" fill="#4A8914" p-id="3698"></path><path d="M377.411765 890.435765h44.521411v44.521411h-44.521411z" fill="#231815" p-id="3699"></path><path d="M377.411765 845.911341h44.521411v44.521412h-44.521411z" fill="#AACB0C" p-id="3700"></path><path d="M377.411765 801.391435h44.521411v44.521412h-44.521411zM332.882824 934.955671h44.521411v44.521411h-44.521411z" fill="#231815" p-id="3701"></path><path d="M332.882824 890.435765h44.521411v44.521411h-44.521411z" fill="#4A8914" p-id="3702"></path><path d="M332.882824 845.911341h44.521411v44.521412h-44.521411z" fill="#231815" p-id="3703"></path><path d="M332.882824 801.391435h44.521411v44.521412h-44.521411z" fill="#AACB0C" p-id="3704"></path><path d="M332.882824 756.870024h44.521411v44.521411h-44.521411zM288.364424 934.955671h44.521411v44.521411H288.364424z" fill="#231815" p-id="3705"></path><path d="M288.364424 890.435765h44.521411v44.521411H288.364424z" fill="#4A8914" p-id="3706"></path><path d="M243.835482 890.435765h44.521412v44.521411H243.835482z" fill="#231815" p-id="3707"></path><path d="M288.364424 845.911341h44.521411v44.521412H288.364424zM243.835482 845.911341h44.521412v44.521412H243.835482z" fill="#4A8914" p-id="3708"></path><path d="M199.317082 845.911341h44.521412v44.521412H199.317082zM288.364424 801.391435h44.521411v44.521412H288.364424zM288.364424 756.870024h44.521411v44.521411H288.364424z" fill="#231815" p-id="3709"></path><path d="M243.835482 801.391435h44.521412v44.521412H243.835482zM243.835482 756.870024h44.521412v44.521411H243.835482z" fill="#AACB0C" p-id="3710"></path><path d="M243.835482 712.347106h44.521412v44.521412H243.835482zM199.317082 801.391435h44.521412v44.521412H199.317082zM199.317082 756.870024h44.521412v44.521411H199.317082z" fill="#231815" p-id="3711"></path><path d="M466.447059 667.8272h44.521412v44.521412H466.447059z" fill="#AACB0C" p-id="3712"></path><path d="M466.447059 712.347106h44.521412v44.521412H466.447059zM466.447059 756.870024h44.521412v44.521411H466.447059zM466.447059 801.391435h44.521412v44.521412H466.447059z" fill="#AACB0C" p-id="3713"></path><path d="M466.447059 845.911341h44.521412v44.521412H466.447059zM466.447059 890.435765h44.521412v44.521411H466.447059z" fill="#4A8914" p-id="3714"></path><path d="M466.447059 934.955671h44.521412v44.521411H466.447059z" fill="#4A8914" p-id="3715"></path><path d="M466.447059 979.480094h44.521412v44.521412H466.447059zM510.976 667.8272h44.521412v44.521412H510.976z" fill="#231815" p-id="3716"></path><path d="M510.976 712.347106h44.521412v44.521412H510.976zM510.976 756.870024h44.521412v44.521411H510.976zM510.976 801.391435h44.521412v44.521412H510.976z" fill="#231815" p-id="3717"></path><path d="M510.976 845.911341h44.521412v44.521412H510.976zM510.976 890.435765h44.521412v44.521411H510.976z" fill="#231815" p-id="3718"></path><path d="M510.976 934.955671h44.521412v44.521411H510.976zM510.976 979.480094h44.521412v44.521412H510.976z" fill="#231815" p-id="3719"></path><path d="M555.4944 979.480094h44.521412v44.521412h-44.521412z" fill="#231815" p-id="3720"></path><path d="M555.4944 934.955671h44.521412v44.521411h-44.521412z" fill="#4A8914" p-id="3721"></path><path d="M555.4944 890.435765h44.521412v44.521411h-44.521412z" fill="#231815" p-id="3722"></path><path d="M555.4944 845.911341h44.521412v44.521412h-44.521412z" fill="#AACB0C" p-id="3723"></path><path d="M555.4944 801.391435h44.521412v44.521412h-44.521412z" fill="#231815" p-id="3724"></path><path d="M600.011294 801.391435h44.521412v44.521412h-44.521412z" fill="#AACB0C" p-id="3725"></path><path d="M600.011294 845.911341h44.521412v44.521412h-44.521412z" fill="#231815" p-id="3726"></path><path d="M600.011294 890.435765h44.521412v44.521411h-44.521412z" fill="#4A8914" p-id="3727"></path><path d="M600.011294 934.955671h44.521412v44.521411h-44.521412zM600.011294 756.870024h44.521412v44.521411h-44.521412zM644.541741 756.870024h44.521412v44.521411h-44.521412zM644.541741 801.391435h44.521412v44.521412h-44.521412z" fill="#231815" p-id="3728"></path><path d="M644.541741 845.911341h44.521412v44.521412h-44.521412zM644.541741 890.435765h44.521412v44.521411h-44.521412z" fill="#4A8914" p-id="3729"></path><path d="M644.541741 934.955671h44.521412v44.521411h-44.521412z" fill="#231815" p-id="3730"></path><path d="M689.058635 756.870024h44.521412v44.521411h-44.521412zM689.058635 801.391435h44.521412v44.521412h-44.521412z" fill="#AACB0C" p-id="3731"></path><path d="M689.058635 845.911341h44.521412v44.521412h-44.521412z" fill="#4A8914" p-id="3732"></path><path d="M689.058635 890.435765h44.521412v44.521411h-44.521412zM689.058635 712.347106h44.521412v44.521412h-44.521412zM733.577035 756.870024h44.521412v44.521411h-44.521412zM733.577035 801.391435h44.521412v44.521412h-44.521412z" fill="#231815" p-id="3733"></path><path d="M733.577035 845.911341h44.521412v44.521412h-44.521412zM266.741459 489.738541h44.521412v44.521412H266.741459zM266.741459 534.261459h44.521412v44.521412H266.741459z" fill="#231815" p-id="3734"></path><path d="M400.305694 578.782871h44.521412v44.521411h-44.521412z" fill="#D8192F" p-id="3735"></path><path d="M400.305694 623.302776h44.521412v44.521412h-44.521412zM311.258353 400.697224h44.521412v44.521411H311.258353zM400.305694 44.519906h44.521412v44.521412h-44.521412z" fill="#231815" p-id="3736"></path><path d="M400.305694 89.044329h44.521412v44.521412h-44.521412z" fill="#D8192F" p-id="3737"></path><path d="M400.305694 133.564235h44.521412v44.521412h-44.521412zM400.305694 178.088659h44.521412v44.521412h-44.521412z" fill="#D8192F" p-id="3738"></path><path d="M400.305694 222.608565h44.521412v44.521411h-44.521412zM400.305694 356.1728h44.521412v44.521412h-44.521412zM533.869929 0h44.521412v44.521412h-44.521412z" fill="#231815" p-id="3739"></path><path d="M533.869929 44.519906h44.521412v44.521412h-44.521412zM533.869929 89.044329h44.521412v44.521412h-44.521412z" fill="#D8192F" p-id="3740"></path><path d="M533.869929 133.564235h44.521412v44.521412h-44.521412zM533.869929 267.129976h44.521412v44.521412h-44.521412zM622.905224 44.519906h44.521411v44.521412h-44.521411zM622.905224 222.608565h44.521411v44.521411h-44.521411z" fill="#231815" p-id="3741"></path><path d="M578.388329 0h44.521412v44.521412h-44.521412z" fill="#231815" p-id="3742"></path><path d="M578.388329 44.519906h44.521412v44.521412h-44.521412z" fill="#D8192F" p-id="3743"></path><path d="M578.388329 89.044329h44.521412v44.521412h-44.521412zM578.388329 222.608565h44.521412v44.521411h-44.521412zM667.435671 44.519906h44.521411v44.521412h-44.521411zM667.435671 178.088659h44.521411v44.521412h-44.521411z" fill="#231815" p-id="3744"></path></svg>