<?xml version="1.0" standalone="no"?><!DOCTYPE svg PUBLIC "-//W3C//DTD SVG 1.1//EN" "http://www.w3.org/Graphics/SVG/1.1/DTD/svg11.dtd"><svg t="1741849416276" class="icon" viewBox="0 0 1024 1024" version="1.1" xmlns="http://www.w3.org/2000/svg" p-id="3894" xmlns:xlink="http://www.w3.org/1999/xlink" width="200" height="200"><path d="M51.2 51.2h51.2v51.2H51.2zM51.2 102.4h51.2v51.2H51.2zM51.2 153.6h51.2v51.2H51.2zM102.4 204.8h51.2v51.2H102.4zM51.2 256h51.2v51.2H51.2z" fill="#3A2802" p-id="3895"></path><path d="M51.2 307.2h51.2v51.2H51.2zM51.2 614.4h51.2v51.2H51.2zM51.2 358.4h51.2v51.2H51.2zM51.2 665.6h51.2v51.2H51.2z" fill="#FFFFFF" p-id="3896"></path><path d="M51.2 409.6h51.2v51.2H51.2zM51.2 563.2h51.2v51.2H51.2zM51.2 716.8h51.2v51.2H51.2zM51.2 819.2h51.2v51.2H51.2zM51.2 870.4h51.2v51.2H51.2zM51.2 921.6h51.2v51.2H51.2zM0 307.2h51.2v51.2H0zM0 614.4h51.2v51.2H0zM0 358.4h51.2v51.2H0zM0 665.6h51.2v51.2H0zM102.4 51.2h51.2v51.2H102.4z" fill="#3A2802" p-id="3897"></path><path d="M102.4 102.4h51.2v51.2H102.4zM102.4 153.6h51.2v51.2H102.4z" fill="#00C300" p-id="3898"></path><path d="M153.6 204.8h51.2v51.2h-51.2z" fill="#3A2802" p-id="3899"></path><path d="M102.4 256h51.2v51.2H102.4z" fill="#FFFFFF" p-id="3900"></path><path d="M102.4 307.2h51.2v51.2H102.4zM102.4 614.4h51.2v51.2H102.4zM102.4 358.4h51.2v51.2H102.4zM102.4 665.6h51.2v51.2H102.4z" fill="#7859FF" p-id="3901"></path><path d="M102.4 409.6h51.2v51.2H102.4zM102.4 563.2h51.2v51.2H102.4zM102.4 716.8h51.2v51.2H102.4z" fill="#FFFFFF" p-id="3902"></path><path d="M102.4 819.2h51.2v51.2H102.4zM102.4 870.4h51.2v51.2H102.4z" fill="#00C300" p-id="3903"></path><path d="M102.4 921.6h51.2v51.2H102.4zM102.4 460.8h51.2v51.2H102.4zM102.4 512h51.2v51.2H102.4zM102.4 768h51.2v51.2H102.4zM153.6 51.2h51.2v51.2h-51.2zM256 51.2h51.2v51.2h-51.2zM307.2 0h51.2v51.2h-51.2zM358.4 0h51.2v51.2h-51.2z" fill="#3A2802" p-id="3904"></path><path d="M358.4 51.2h51.2v51.2h-51.2z" fill="#FFFFFF" p-id="3905"></path><path d="M409.6 51.2h51.2v51.2h-51.2zM563.2 51.2h51.2v51.2h-51.2zM614.4 0h51.2v51.2h-51.2zM665.6 0h51.2v51.2h-51.2z" fill="#3A2802" p-id="3906"></path><path d="M153.6 102.4h51.2v51.2h-51.2z" fill="#00C300" p-id="3907"></path><path d="M256 102.4h51.2v51.2h-51.2zM307.2 51.2h51.2v51.2h-51.2z" fill="#FFFFFF" p-id="3908"></path><path d="M204.8 102.4h51.2v51.2h-51.2z" fill="#3A2802" p-id="3909"></path><path d="M153.6 153.6h51.2v51.2h-51.2z" fill="#008700" p-id="3910"></path><path d="M256 153.6h51.2v51.2h-51.2zM307.2 102.4h51.2v51.2h-51.2zM358.4 102.4h51.2v51.2h-51.2zM409.6 102.4h51.2v51.2h-51.2z" fill="#FFFFFF" p-id="3911"></path><path d="M460.8 102.4h51.2v51.2h-51.2zM512 102.4h51.2v51.2h-51.2z" fill="#3A2802" p-id="3912"></path><path d="M563.2 102.4h51.2v51.2h-51.2zM614.4 51.2h51.2v51.2h-51.2zM665.6 51.2h51.2v51.2h-51.2z" fill="#FFFFFF" p-id="3913"></path><path d="M716.8 51.2h51.2v51.2h-51.2zM819.2 51.2h51.2v51.2h-51.2zM870.4 51.2h51.2v51.2h-51.2zM921.6 51.2h51.2v51.2h-51.2zM204.8 204.8h51.2v51.2h-51.2z" fill="#3A2802" p-id="3914"></path><path d="M153.6 256h51.2v51.2h-51.2z" fill="#FFFFFF" p-id="3915"></path><path d="M153.6 307.2h51.2v51.2h-51.2zM153.6 614.4h51.2v51.2h-51.2zM153.6 358.4h51.2v51.2h-51.2zM153.6 665.6h51.2v51.2h-51.2zM153.6 409.6h51.2v51.2h-51.2zM153.6 563.2h51.2v51.2h-51.2z" fill="#7859FF" p-id="3916"></path><path d="M153.6 716.8h51.2v51.2h-51.2z" fill="#FFFFFF" p-id="3917"></path><path d="M153.6 819.2h51.2v51.2h-51.2z" fill="#008700" p-id="3918"></path><path d="M153.6 870.4h51.2v51.2h-51.2z" fill="#00C300" p-id="3919"></path><path d="M153.6 921.6h51.2v51.2h-51.2z" fill="#3A2802" p-id="3920"></path><path d="M153.6 460.8h51.2v51.2h-51.2zM153.6 512h51.2v51.2h-51.2z" fill="#FFFFFF" p-id="3921"></path><path d="M153.6 768h51.2v51.2h-51.2zM204.8 153.6h51.2v51.2h-51.2z" fill="#3A2802" p-id="3922"></path><path d="M256 204.8h51.2v51.2h-51.2z" fill="#FFCC00" p-id="3923"></path><path d="M307.2 204.8h51.2v51.2h-51.2zM358.4 204.8h51.2v51.2h-51.2zM409.6 204.8h51.2v51.2h-51.2zM460.8 204.8h51.2v51.2h-51.2zM512 204.8h51.2v51.2h-51.2zM563.2 204.8h51.2v51.2h-51.2zM614.4 153.6h51.2v51.2h-51.2zM665.6 153.6h51.2v51.2h-51.2z" fill="#7859FF" p-id="3924"></path><path d="M716.8 153.6h51.2v51.2h-51.2z" fill="#FFFFFF" p-id="3925"></path><path d="M819.2 153.6h51.2v51.2h-51.2z" fill="#008700" p-id="3926"></path><path d="M870.4 153.6h51.2v51.2h-51.2z" fill="#00C300" p-id="3927"></path><path d="M921.6 153.6h51.2v51.2h-51.2zM768 153.6h51.2v51.2h-51.2z" fill="#3A2802" p-id="3928"></path><path d="M256 256h51.2v51.2h-51.2z" fill="#FFFFFF" p-id="3929"></path><path d="M256 307.2h51.2v51.2h-51.2z" fill="#FFCC00" p-id="3930"></path><path d="M256 614.4h51.2v51.2h-51.2zM256 358.4h51.2v51.2h-51.2z" fill="#7859FF" p-id="3931"></path><path d="M256 665.6h51.2v51.2h-51.2z" fill="#FFCC00" p-id="3932"></path><path d="M256 409.6h51.2v51.2h-51.2zM256 563.2h51.2v51.2h-51.2z" fill="#7859FF" p-id="3933"></path><path d="M256 716.8h51.2v51.2h-51.2zM256 819.2h51.2v51.2h-51.2zM256 870.4h51.2v51.2h-51.2z" fill="#FFFFFF" p-id="3934"></path><path d="M256 921.6h51.2v51.2h-51.2z" fill="#3A2802" p-id="3935"></path><path d="M256 460.8h51.2v51.2h-51.2zM256 512h51.2v51.2h-51.2z" fill="#7859FF" p-id="3936"></path><path d="M256 768h51.2v51.2h-51.2zM307.2 256h51.2v51.2h-51.2z" fill="#FFCC00" p-id="3937"></path><path d="M307.2 307.2h51.2v51.2h-51.2z" fill="#FFFFFF" p-id="3938"></path><path d="M307.2 614.4h51.2v51.2h-51.2zM307.2 358.4h51.2v51.2h-51.2z" fill="#FFCC00" p-id="3939"></path><path d="M307.2 665.6h51.2v51.2h-51.2z" fill="#FFFFFF" p-id="3940"></path><path d="M307.2 409.6h51.2v51.2h-51.2zM307.2 563.2h51.2v51.2h-51.2z" fill="#7859FF" p-id="3941"></path><path d="M307.2 716.8h51.2v51.2h-51.2z" fill="#FFCC00" p-id="3942"></path><path d="M307.2 819.2h51.2v51.2h-51.2z" fill="#7859FF" p-id="3943"></path><path d="M307.2 870.4h51.2v51.2h-51.2zM307.2 921.6h51.2v51.2h-51.2z" fill="#FFFFFF" p-id="3944"></path><path d="M307.2 460.8h51.2v51.2h-51.2zM307.2 512h51.2v51.2h-51.2z" fill="#FFCC00" p-id="3945"></path><path d="M307.2 768h51.2v51.2h-51.2zM358.4 256h51.2v51.2h-51.2z" fill="#7859FF" p-id="3946"></path><path d="M358.4 307.2h51.2v51.2h-51.2z" fill="#FFCC00" p-id="3947"></path><path d="M358.4 614.4h51.2v51.2h-51.2zM358.4 358.4h51.2v51.2h-51.2z" fill="#FFFFFF" p-id="3948"></path><path d="M358.4 665.6h51.2v51.2h-51.2zM358.4 409.6h51.2v51.2h-51.2zM358.4 563.2h51.2v51.2h-51.2z" fill="#FFCC00" p-id="3949"></path><path d="M358.4 716.8h51.2v51.2h-51.2zM358.4 819.2h51.2v51.2h-51.2z" fill="#7859FF" p-id="3950"></path><path d="M358.4 870.4h51.2v51.2h-51.2zM358.4 921.6h51.2v51.2h-51.2z" fill="#FFFFFF" p-id="3951"></path><path d="M358.4 460.8h51.2v51.2h-51.2zM358.4 512h51.2v51.2h-51.2z" fill="#FFCC00" p-id="3952"></path><path d="M358.4 768h51.2v51.2h-51.2zM409.6 256h51.2v51.2h-51.2zM409.6 307.2h51.2v51.2h-51.2z" fill="#7859FF" p-id="3953"></path><path d="M409.6 614.4h51.2v51.2h-51.2zM409.6 358.4h51.2v51.2h-51.2z" fill="#FFCC00" p-id="3954"></path><path d="M409.6 665.6h51.2v51.2h-51.2z" fill="#7859FF" p-id="3955"></path><path d="M409.6 409.6h51.2v51.2h-51.2zM409.6 563.2h51.2v51.2h-51.2z" fill="#FFFFFF" p-id="3956"></path><path d="M409.6 716.8h51.2v51.2h-51.2zM409.6 819.2h51.2v51.2h-51.2z" fill="#7859FF" p-id="3957"></path><path d="M409.6 870.4h51.2v51.2h-51.2z" fill="#FFFFFF" p-id="3958"></path><path d="M409.6 921.6h51.2v51.2h-51.2z" fill="#3A2802" p-id="3959"></path><path d="M409.6 460.8h51.2v51.2h-51.2zM409.6 512h51.2v51.2h-51.2z" fill="#FCFC11" p-id="3960"></path><path d="M409.6 768h51.2v51.2h-51.2zM460.8 256h51.2v51.2h-51.2z" fill="#7859FF" p-id="3961"></path><path d="M460.8 307.2h51.2v51.2h-51.2zM460.8 614.4h51.2v51.2h-51.2zM460.8 358.4h51.2v51.2h-51.2zM460.8 665.6h51.2v51.2h-51.2z" fill="#FFCC00" p-id="3962"></path><path d="M460.8 409.6h51.2v51.2h-51.2zM460.8 563.2h51.2v51.2h-51.2z" fill="#FCFC11" p-id="3963"></path><path d="M460.8 716.8h51.2v51.2h-51.2z" fill="#7859FF" p-id="3964"></path><path d="M460.8 819.2h51.2v51.2h-51.2z" fill="#FFFFFF" p-id="3965"></path><path d="M460.8 870.4h51.2v51.2h-51.2zM307.2 972.8h51.2v51.2h-51.2zM614.4 972.8h51.2v51.2h-51.2z" fill="#3A2802" p-id="3966"></path><path d="M460.8 460.8h51.2v51.2h-51.2zM460.8 512h51.2v51.2h-51.2z" fill="#FCFC11" p-id="3967"></path><path d="M460.8 768h51.2v51.2h-51.2zM512 256h51.2v51.2h-51.2z" fill="#7859FF" p-id="3968"></path><path d="M512 307.2h51.2v51.2h-51.2zM512 614.4h51.2v51.2h-51.2zM512 358.4h51.2v51.2h-51.2zM512 665.6h51.2v51.2h-51.2z" fill="#FFCC00" p-id="3969"></path><path d="M512 409.6h51.2v51.2h-51.2zM512 563.2h51.2v51.2h-51.2z" fill="#FCFC11" p-id="3970"></path><path d="M512 716.8h51.2v51.2h-51.2z" fill="#7859FF" p-id="3971"></path><path d="M512 819.2h51.2v51.2h-51.2z" fill="#FFFFFF" p-id="3972"></path><path d="M512 870.4h51.2v51.2h-51.2zM358.4 972.8h51.2v51.2h-51.2zM665.6 972.8h51.2v51.2h-51.2z" fill="#3A2802" p-id="3973"></path><path d="M512 460.8h51.2v51.2h-51.2zM512 512h51.2v51.2h-51.2z" fill="#FCFC11" p-id="3974"></path><path d="M512 768h51.2v51.2h-51.2zM563.2 256h51.2v51.2h-51.2zM563.2 307.2h51.2v51.2h-51.2z" fill="#7859FF" p-id="3975"></path><path d="M563.2 614.4h51.2v51.2h-51.2zM563.2 358.4h51.2v51.2h-51.2z" fill="#FFCC00" p-id="3976"></path><path d="M563.2 665.6h51.2v51.2h-51.2z" fill="#7859FF" p-id="3977"></path><path d="M563.2 409.6h51.2v51.2h-51.2zM563.2 563.2h51.2v51.2h-51.2z" fill="#FFFFFF" p-id="3978"></path><path d="M563.2 716.8h51.2v51.2h-51.2zM563.2 819.2h51.2v51.2h-51.2z" fill="#7859FF" p-id="3979"></path><path d="M563.2 870.4h51.2v51.2h-51.2z" fill="#FFFFFF" p-id="3980"></path><path d="M563.2 921.6h51.2v51.2h-51.2z" fill="#3A2802" p-id="3981"></path><path d="M563.2 460.8h51.2v51.2h-51.2zM563.2 512h51.2v51.2h-51.2z" fill="#FCFC11" p-id="3982"></path><path d="M563.2 768h51.2v51.2h-51.2zM614.4 204.8h51.2v51.2h-51.2zM665.6 204.8h51.2v51.2h-51.2z" fill="#7859FF" p-id="3983"></path><path d="M716.8 204.8h51.2v51.2h-51.2z" fill="#FFCC00" p-id="3984"></path><path d="M819.2 204.8h51.2v51.2h-51.2zM870.4 204.8h51.2v51.2h-51.2zM768 204.8h51.2v51.2h-51.2z" fill="#3A2802" p-id="3985"></path><path d="M614.4 256h51.2v51.2h-51.2z" fill="#7859FF" p-id="3986"></path><path d="M614.4 307.2h51.2v51.2h-51.2z" fill="#FFCC00" p-id="3987"></path><path d="M614.4 614.4h51.2v51.2h-51.2zM614.4 358.4h51.2v51.2h-51.2z" fill="#FFFFFF" p-id="3988"></path><path d="M614.4 665.6h51.2v51.2h-51.2zM614.4 409.6h51.2v51.2h-51.2zM614.4 563.2h51.2v51.2h-51.2z" fill="#FFCC00" p-id="3989"></path><path d="M614.4 716.8h51.2v51.2h-51.2zM614.4 819.2h51.2v51.2h-51.2z" fill="#7859FF" p-id="3990"></path><path d="M614.4 870.4h51.2v51.2h-51.2zM614.4 921.6h51.2v51.2h-51.2z" fill="#FFFFFF" p-id="3991"></path><path d="M614.4 460.8h51.2v51.2h-51.2zM614.4 512h51.2v51.2h-51.2z" fill="#FFCC00" p-id="3992"></path><path d="M614.4 768h51.2v51.2h-51.2z" fill="#7859FF" p-id="3993"></path><path d="M665.6 256h51.2v51.2h-51.2z" fill="#FFCC00" p-id="3994"></path><path d="M665.6 307.2h51.2v51.2h-51.2z" fill="#FFFFFF" p-id="3995"></path><path d="M665.6 614.4h51.2v51.2h-51.2zM665.6 358.4h51.2v51.2h-51.2z" fill="#FFCC00" p-id="3996"></path><path d="M665.6 665.6h51.2v51.2h-51.2z" fill="#FFFFFF" p-id="3997"></path><path d="M665.6 409.6h51.2v51.2h-51.2zM665.6 563.2h51.2v51.2h-51.2z" fill="#7859FF" p-id="3998"></path><path d="M665.6 716.8h51.2v51.2h-51.2z" fill="#FFCC00" p-id="3999"></path><path d="M665.6 819.2h51.2v51.2h-51.2z" fill="#7859FF" p-id="4000"></path><path d="M665.6 870.4h51.2v51.2h-51.2zM665.6 921.6h51.2v51.2h-51.2z" fill="#FFFFFF" p-id="4001"></path><path d="M665.6 460.8h51.2v51.2h-51.2zM665.6 512h51.2v51.2h-51.2z" fill="#FFCC00" p-id="4002"></path><path d="M665.6 768h51.2v51.2h-51.2z" fill="#7859FF" p-id="4003"></path><path d="M716.8 256h51.2v51.2h-51.2z" fill="#FFFFFF" p-id="4004"></path><path d="M716.8 307.2h51.2v51.2h-51.2z" fill="#FFCC00" p-id="4005"></path><path d="M716.8 614.4h51.2v51.2h-51.2zM716.8 358.4h51.2v51.2h-51.2z" fill="#7859FF" p-id="4006"></path><path d="M716.8 665.6h51.2v51.2h-51.2z" fill="#FFCC00" p-id="4007"></path><path d="M716.8 409.6h51.2v51.2h-51.2zM716.8 563.2h51.2v51.2h-51.2z" fill="#7859FF" p-id="4008"></path><path d="M716.8 716.8h51.2v51.2h-51.2zM716.8 819.2h51.2v51.2h-51.2zM716.8 870.4h51.2v51.2h-51.2z" fill="#FFFFFF" p-id="4009"></path><path d="M716.8 921.6h51.2v51.2h-51.2z" fill="#3A2802" p-id="4010"></path><path d="M716.8 460.8h51.2v51.2h-51.2zM716.8 512h51.2v51.2h-51.2z" fill="#7859FF" p-id="4011"></path><path d="M716.8 768h51.2v51.2h-51.2z" fill="#FFCC00" p-id="4012"></path><path d="M819.2 256h51.2v51.2h-51.2z" fill="#FFFFFF" p-id="4013"></path><path d="M819.2 307.2h51.2v51.2h-51.2zM819.2 614.4h51.2v51.2h-51.2zM819.2 358.4h51.2v51.2h-51.2zM819.2 665.6h51.2v51.2h-51.2zM819.2 409.6h51.2v51.2h-51.2zM819.2 563.2h51.2v51.2h-51.2z" fill="#7859FF" p-id="4014"></path><path d="M819.2 716.8h51.2v51.2h-51.2z" fill="#FFFFFF" p-id="4015"></path><path d="M819.2 819.2h51.2v51.2h-51.2z" fill="#008700" p-id="4016"></path><path d="M819.2 870.4h51.2v51.2h-51.2z" fill="#00C300" p-id="4017"></path><path d="M819.2 921.6h51.2v51.2h-51.2z" fill="#3A2802" p-id="4018"></path><path d="M819.2 460.8h51.2v51.2h-51.2zM819.2 512h51.2v51.2h-51.2z" fill="#FFFFFF" p-id="4019"></path><path d="M819.2 768h51.2v51.2h-51.2z" fill="#3A2802" p-id="4020"></path><path d="M870.4 256h51.2v51.2h-51.2z" fill="#FFFFFF" p-id="4021"></path><path d="M870.4 307.2h51.2v51.2h-51.2zM870.4 614.4h51.2v51.2h-51.2zM870.4 358.4h51.2v51.2h-51.2zM870.4 665.6h51.2v51.2h-51.2z" fill="#7859FF" p-id="4022"></path><path d="M870.4 409.6h51.2v51.2h-51.2zM870.4 563.2h51.2v51.2h-51.2zM870.4 716.8h51.2v51.2h-51.2z" fill="#FFFFFF" p-id="4023"></path><path d="M870.4 819.2h51.2v51.2h-51.2zM870.4 870.4h51.2v51.2h-51.2z" fill="#00C300" p-id="4024"></path><path d="M870.4 921.6h51.2v51.2h-51.2zM870.4 460.8h51.2v51.2h-51.2zM870.4 512h51.2v51.2h-51.2zM870.4 768h51.2v51.2h-51.2zM921.6 256h51.2v51.2h-51.2z" fill="#3A2802" p-id="4025"></path><path d="M921.6 307.2h51.2v51.2h-51.2zM921.6 614.4h51.2v51.2h-51.2zM921.6 358.4h51.2v51.2h-51.2zM921.6 665.6h51.2v51.2h-51.2z" fill="#FFFFFF" p-id="4026"></path><path d="M921.6 409.6h51.2v51.2h-51.2zM921.6 563.2h51.2v51.2h-51.2zM921.6 716.8h51.2v51.2h-51.2zM921.6 819.2h51.2v51.2h-51.2zM921.6 870.4h51.2v51.2h-51.2zM921.6 921.6h51.2v51.2h-51.2zM972.8 307.2h51.2v51.2h-51.2zM972.8 614.4h51.2v51.2h-51.2zM972.8 358.4h51.2v51.2h-51.2zM972.8 665.6h51.2v51.2h-51.2z" fill="#3A2802" p-id="4027"></path><path d="M768 256h51.2v51.2h-51.2z" fill="#FFCC00" p-id="4028"></path><path d="M768 307.2h51.2v51.2h-51.2zM768 614.4h51.2v51.2h-51.2zM768 358.4h51.2v51.2h-51.2zM768 665.6h51.2v51.2h-51.2zM768 409.6h51.2v51.2h-51.2zM768 563.2h51.2v51.2h-51.2z" fill="#7859FF" p-id="4029"></path><path d="M768 716.8h51.2v51.2h-51.2z" fill="#FFCC00" p-id="4030"></path><path d="M768 819.2h51.2v51.2h-51.2zM768 870.4h51.2v51.2h-51.2z" fill="#3A2802" p-id="4031"></path><path d="M768 460.8h51.2v51.2h-51.2zM768 512h51.2v51.2h-51.2z" fill="#7859FF" p-id="4032"></path><path d="M768 768h51.2v51.2h-51.2z" fill="#3A2802" p-id="4033"></path><path d="M307.2 153.6h51.2v51.2h-51.2zM358.4 153.6h51.2v51.2h-51.2zM409.6 153.6h51.2v51.2h-51.2z" fill="#7859FF" p-id="4034"></path><path d="M460.8 153.6h51.2v51.2h-51.2zM512 153.6h51.2v51.2h-51.2z" fill="#FFFFFF" p-id="4035"></path><path d="M563.2 153.6h51.2v51.2h-51.2z" fill="#7859FF" p-id="4036"></path><path d="M614.4 102.4h51.2v51.2h-51.2zM665.6 102.4h51.2v51.2h-51.2zM716.8 102.4h51.2v51.2h-51.2z" fill="#FFFFFF" p-id="4037"></path><path d="M819.2 102.4h51.2v51.2h-51.2zM870.4 102.4h51.2v51.2h-51.2z" fill="#00C300" p-id="4038"></path><path d="M921.6 102.4h51.2v51.2h-51.2zM768 102.4h51.2v51.2h-51.2z" fill="#3A2802" p-id="4039"></path><path d="M204.8 256h51.2v51.2h-51.2z" fill="#FFCC00" p-id="4040"></path><path d="M204.8 307.2h51.2v51.2h-51.2zM204.8 614.4h51.2v51.2h-51.2zM204.8 358.4h51.2v51.2h-51.2zM204.8 665.6h51.2v51.2h-51.2zM204.8 409.6h51.2v51.2h-51.2zM204.8 563.2h51.2v51.2h-51.2z" fill="#7859FF" p-id="4041"></path><path d="M204.8 716.8h51.2v51.2h-51.2z" fill="#FFCC00" p-id="4042"></path><path d="M204.8 819.2h51.2v51.2h-51.2zM204.8 870.4h51.2v51.2h-51.2z" fill="#3A2802" p-id="4043"></path><path d="M204.8 460.8h51.2v51.2h-51.2zM204.8 512h51.2v51.2h-51.2z" fill="#7859FF" p-id="4044"></path><path d="M204.8 768h51.2v51.2h-51.2z" fill="#3A2802" p-id="4045"></path></svg>