<?xml version="1.0" standalone="no"?><!DOCTYPE svg PUBLIC "-//W3C//DTD SVG 1.1//EN" "http://www.w3.org/Graphics/SVG/1.1/DTD/svg11.dtd"><svg t="1741849398215" class="icon" viewBox="0 0 1031 1024" version="1.1" xmlns="http://www.w3.org/2000/svg" p-id="2352" xmlns:xlink="http://www.w3.org/1999/xlink" width="201.3671875" height="200"><path d="M546.035953 175.7184h60.592188v60.592188h-60.592188zM606.635671 236.306071h60.592188v60.592188h-60.592188zM243.094588 175.7184h60.592188v60.592188H243.094588zM121.893647 60.593694h60.592188v60.592188H121.893647zM0.718306 405.9648h60.592188v60.592188H0.718306zM848.999906 963.406306h60.592188v60.592188h-60.592188z" fill="#000000" p-id="2353"></path><path d="M848.999906 902.817129h60.592188v60.592189h-60.592188zM848.999906 842.223435h60.592188v60.592189h-60.592188z" fill="#A60000" p-id="2354"></path><path d="M848.999906 781.632753h60.592188v60.592188h-60.592188z" fill="#FFD800" p-id="2355"></path><path d="M848.999906 721.040565h60.592188v60.592188h-60.592188z" fill="#A60000" p-id="2356"></path><path d="M848.999906 660.449882h60.592188v60.592189h-60.592188z" fill="#A60000" p-id="2357"></path><path d="M485.446776 963.406306h60.592189v60.592188h-60.592189z" fill="#000000" p-id="2358"></path><path d="M485.446776 902.817129h60.592189v60.592189h-60.592189z" fill="#A60000" p-id="2359"></path><path d="M485.446776 842.223435h60.592189v60.592189h-60.592189z" fill="#FF0302" p-id="2360"></path><path d="M485.446776 781.632753h60.592189v60.592188h-60.592189zM485.446776 721.040565h60.592189v60.592188h-60.592189z" fill="#FFD800" p-id="2361"></path><path d="M485.446776 660.449882h60.592189v60.592189h-60.592189z" fill="#FFFFFF" p-id="2362"></path><path d="M485.446776 539.267012h60.592189v60.592188h-60.592189z" fill="#FF0302" p-id="2363"></path><path d="M485.446776 599.856188h60.592189v60.592188h-60.592189zM485.446776 478.673318h60.592189v60.592188h-60.592189z" fill="#FF0302" p-id="2364"></path><path d="M485.446776 418.082635h60.592189v60.592189h-60.592189z" fill="#FF0302" p-id="2365"></path><path d="M727.823059 963.406306h60.592188v60.592188H727.823059z" fill="#000000" p-id="2366"></path><path d="M727.823059 902.817129h60.592188v60.592189H727.823059z" fill="#A60000" p-id="2367"></path><path d="M727.823059 842.223435h60.592188v60.592189H727.823059z" fill="#FF0302" p-id="2368"></path><path d="M727.823059 781.632753h60.592188v60.592188H727.823059zM727.823059 721.040565h60.592188v60.592188H727.823059z" fill="#FFD800" p-id="2369"></path><path d="M727.823059 660.449882h60.592188v60.592189H727.823059z" fill="#FFFFFF" p-id="2370"></path><path d="M727.823059 599.856188h60.592188v60.592188H727.823059z" fill="#FF0302" p-id="2371"></path><path d="M364.269929 963.406306h60.592189v60.592188h-60.592189z" fill="#000000" p-id="2372"></path><path d="M364.269929 902.817129h60.592189v60.592189h-60.592189z" fill="#A60000" p-id="2373"></path><path d="M364.269929 842.223435h60.592189v60.592189h-60.592189z" fill="#FF0302" p-id="2374"></path><path d="M364.269929 781.632753h60.592189v60.592188h-60.592189z" fill="#FFD800" p-id="2375"></path><path d="M364.269929 721.040565h60.592189v60.592188h-60.592189z" fill="#FF0302" p-id="2376"></path><path d="M364.269929 660.449882h60.592189v60.592189h-60.592189z" fill="#FF0302" p-id="2377"></path><path d="M364.269929 599.856188h60.592189v60.592188h-60.592189z" fill="#A60000" p-id="2378"></path><path d="M606.635671 963.406306h60.592188v60.592188h-60.592188z" fill="#000000" p-id="2379"></path><path d="M606.635671 902.817129h60.592188v60.592189h-60.592188z" fill="#A60000" p-id="2380"></path><path d="M606.635671 842.223435h60.592188v60.592189h-60.592188z" fill="#FF0302" p-id="2381"></path><path d="M606.635671 781.632753h60.592188v60.592188h-60.592188z" fill="#FFD800" p-id="2382"></path><path d="M606.635671 721.040565h60.592188v60.592188h-60.592188z" fill="#FF0302" p-id="2383"></path><path d="M606.635671 660.449882h60.592188v60.592189h-60.592188z" fill="#FF0302" p-id="2384"></path><path d="M606.635671 599.856188h60.592188v60.592188h-60.592188z" fill="#A60000" p-id="2385"></path><path d="M243.094588 963.406306h60.592188v60.592188H243.094588z" fill="#000000" p-id="2386"></path><path d="M243.094588 902.817129h60.592188v60.592189H243.094588z" fill="#A60000" p-id="2387"></path><path d="M243.094588 842.223435h60.592188v60.592189H243.094588z" fill="#FF0302" p-id="2388"></path><path d="M243.094588 781.632753h60.592188v60.592188H243.094588zM243.094588 721.040565h60.592188v60.592188H243.094588z" fill="#FFD800" p-id="2389"></path><path d="M243.094588 660.449882h60.592188v60.592189H243.094588z" fill="#FFFFFF" p-id="2390"></path><path d="M243.094588 599.856188h60.592188v60.592188H243.094588z" fill="#A60000" p-id="2391"></path><path d="M667.223341 357.490447h60.592188v60.592188h-60.592188zM848.999906 539.267012h60.592188v60.592188h-60.592188zM848.999906 296.899765h60.592188v60.592188h-60.592188zM848.999906 60.593694h60.592188v60.592188h-60.592188zM606.635671 0h60.592188v60.592188h-60.592188zM909.587576 660.449882h60.592189v60.592189h-60.592189zM970.1888 781.632753h60.592188v60.592188h-60.592188zM606.635671 478.673318h60.592188v60.592188h-60.592188z" fill="#000000" p-id="2392"></path><path d="M606.635671 418.082635h60.592188v60.592189h-60.592188z" fill="#A60000" p-id="2393"></path><path d="M606.635671 357.490447h60.592188v60.592188h-60.592188z" fill="#FF0302" p-id="2394"></path><path d="M606.635671 296.899765h60.592188v60.592188h-60.592188zM243.094588 236.306071h60.592188v60.592188H243.094588zM667.223341 418.082635h60.592188v60.592189h-60.592188zM848.999906 599.856188h60.592188v60.592188h-60.592188zM848.999906 357.490447h60.592188v60.592188h-60.592188zM970.1888 478.673318h60.592188v60.592188h-60.592188zM909.587576 721.040565h60.592189v60.592188h-60.592189zM970.1888 842.223435h60.592188v60.592189h-60.592188zM909.587576 902.817129h60.592189v60.592189h-60.592189z" fill="#000000" p-id="2395"></path><path d="M909.587576 842.223435h60.592189v60.592189h-60.592189z" fill="#FFD800" p-id="2396"></path><path d="M909.587576 781.632753h60.592189v60.592188h-60.592189z" fill="#A60000" p-id="2397"></path><path d="M606.635671 539.267012h60.592188v60.592188h-60.592188z" fill="#000000" p-id="2398"></path><path d="M667.223341 599.856188h60.592188v60.592188h-60.592188zM727.823059 539.267012h60.592188v60.592188H727.823059zM788.412235 478.673318h60.592189v60.592188h-60.592189z" fill="#000000" p-id="2399"></path><path d="M546.035953 236.306071h60.592188v60.592188h-60.592188z" fill="#FF0302" p-id="2400"></path><path d="M485.446776 236.306071h60.592189v60.592188h-60.592189zM788.412235 963.406306h60.592189v60.592188h-60.592189z" fill="#000000" p-id="2401"></path><path d="M788.412235 902.817129h60.592189v60.592189h-60.592189z" fill="#A60000" p-id="2402"></path><path d="M788.412235 842.223435h60.592189v60.592189h-60.592189z" fill="#FF0302" p-id="2403"></path><path d="M788.412235 781.632753h60.592189v60.592188h-60.592189zM788.412235 721.040565h60.592189v60.592188h-60.592189z" fill="#FFD800" p-id="2404"></path><path d="M788.412235 660.449882h60.592189v60.592189h-60.592189zM788.412235 599.856188h60.592189v60.592188h-60.592189z" fill="#FF0302" p-id="2405"></path><path d="M788.412235 539.267012h60.592189v60.592188h-60.592189z" fill="#A60000" p-id="2406"></path><path d="M424.859106 963.406306h60.592188v60.592188h-60.592188z" fill="#000000" p-id="2407"></path><path d="M424.859106 902.817129h60.592188v60.592189h-60.592188z" fill="#A60000" p-id="2408"></path><path d="M424.859106 842.223435h60.592188v60.592189h-60.592188z" fill="#FFD800" p-id="2409"></path><path d="M424.859106 781.632753h60.592188v60.592188h-60.592188z" fill="#FFD800" p-id="2410"></path><path d="M424.859106 721.040565h60.592188v60.592188h-60.592188z" fill="#FFFFFF" p-id="2411"></path><path d="M424.859106 660.449882h60.592188v60.592189h-60.592188z" fill="#FF0302" p-id="2412"></path><path d="M424.859106 539.267012h60.592188v60.592188h-60.592188z" fill="#FFD800" p-id="2413"></path><path d="M424.859106 599.856188h60.592188v60.592188h-60.592188zM424.859106 478.673318h60.592188v60.592188h-60.592188z" fill="#FF0302" p-id="2414"></path><path d="M667.223341 963.406306h60.592188v60.592188h-60.592188z" fill="#000000" p-id="2415"></path><path d="M667.223341 902.817129h60.592188v60.592189h-60.592188z" fill="#A60000" p-id="2416"></path><path d="M667.223341 842.223435h60.592188v60.592189h-60.592188z" fill="#FFD800" p-id="2417"></path><path d="M667.223341 781.632753h60.592188v60.592188h-60.592188z" fill="#FFD800" p-id="2418"></path><path d="M667.223341 721.040565h60.592188v60.592188h-60.592188z" fill="#FFFFFF" p-id="2419"></path><path d="M667.223341 660.449882h60.592188v60.592189h-60.592188z" fill="#A60000" p-id="2420"></path><path d="M303.682259 963.406306h60.592188v60.592188h-60.592188z" fill="#000000" p-id="2421"></path><path d="M303.682259 902.817129h60.592188v60.592189h-60.592188z" fill="#A60000" p-id="2422"></path><path d="M303.682259 842.223435h60.592188v60.592189h-60.592188z" fill="#FF0302" p-id="2423"></path><path d="M303.682259 781.632753h60.592188v60.592188h-60.592188zM303.682259 721.040565h60.592188v60.592188h-60.592188z" fill="#FFD800" p-id="2424"></path><path d="M303.682259 660.449882h60.592188v60.592189h-60.592188z" fill="#FF0302" p-id="2425"></path><path d="M546.035953 963.406306h60.592188v60.592188h-60.592188z" fill="#000000" p-id="2426"></path><path d="M546.035953 902.817129h60.592188v60.592189h-60.592188z" fill="#A60000" p-id="2427"></path><path d="M546.035953 842.223435h60.592188v60.592189h-60.592188z" fill="#FF0302" p-id="2428"></path><path d="M546.035953 781.632753h60.592188v60.592188h-60.592188zM546.035953 721.040565h60.592188v60.592188h-60.592188z" fill="#FFD800" p-id="2429"></path><path d="M546.035953 660.449882h60.592188v60.592189h-60.592188zM546.035953 539.267012h60.592188v60.592188h-60.592188z" fill="#FF0302" p-id="2430"></path><path d="M546.035953 599.856188h60.592188v60.592188h-60.592188z" fill="#FFFFFF" p-id="2431"></path><path d="M546.035953 478.673318h60.592188v60.592188h-60.592188z" fill="#FF0302" p-id="2432"></path><path d="M546.035953 418.082635h60.592188v60.592189h-60.592188z" fill="#FFD800" p-id="2433"></path><path d="M182.482824 963.406306h60.592188v60.592188H182.482824z" fill="#000000" p-id="2434"></path><path d="M182.482824 902.817129h60.592188v60.592189H182.482824z" fill="#A60000" p-id="2435"></path><path d="M182.482824 842.223435h60.592188v60.592189H182.482824z" fill="#FFD800" p-id="2436"></path><path d="M182.482824 781.632753h60.592188v60.592188H182.482824z" fill="#FFD800" p-id="2437"></path><path d="M182.482824 721.040565h60.592188v60.592188H182.482824z" fill="#FFFFFF" p-id="2438"></path><path d="M182.482824 660.449882h60.592188v60.592189H182.482824zM182.482824 599.856188h60.592188v60.592188H182.482824zM546.035953 296.899765h60.592188v60.592188h-60.592188z" fill="#FF0302" p-id="2439"></path><path d="M485.446776 296.899765h60.592189v60.592188h-60.592189z" fill="#000000" p-id="2440"></path><path d="M546.035953 357.490447h60.592188v60.592188h-60.592188z" fill="#FF0302" p-id="2441"></path><path d="M485.446776 357.490447h60.592189v60.592188h-60.592189zM424.859106 418.082635h60.592188v60.592189h-60.592188z" fill="#000000" p-id="2442"></path><path d="M364.269929 478.673318h60.592189v60.592188h-60.592189zM243.094588 478.673318h60.592188v60.592188H243.094588z" fill="#000000" p-id="2443"></path><path d="M182.482824 478.673318h60.592188v60.592188H182.482824z" fill="#FF0302" p-id="2444"></path><path d="M182.482824 418.082635h60.592188v60.592189H182.482824zM364.269929 539.267012h60.592189v60.592188h-60.592189zM243.094588 539.267012h60.592188v60.592188H243.094588z" fill="#000000" p-id="2445"></path><path d="M182.482824 539.267012h60.592188v60.592188H182.482824z" fill="#FFD800" p-id="2446"></path><path d="M121.893647 478.673318h60.592188v60.592188H121.893647zM61.305976 599.856188h60.592189v60.592188H61.305976zM0.718306 721.040565h60.592188v60.592188H0.718306z" fill="#000000" p-id="2447"></path><path d="M121.893647 539.267012h60.592188v60.592188H121.893647zM61.305976 660.449882h60.592189v60.592189H61.305976zM0.718306 781.632753h60.592188v60.592188H0.718306z" fill="#000000" p-id="2448"></path><path d="M0.718306 842.223435h60.592188v60.592189H0.718306zM61.305976 902.817129h60.592189v60.592189H61.305976z" fill="#000000" p-id="2449"></path><path d="M61.305976 842.223435h60.592189v60.592189H61.305976z" fill="#FFD800" p-id="2450"></path><path d="M61.305976 781.632753h60.592189v60.592188H61.305976zM61.305976 721.040565h60.592189v60.592188H61.305976z" fill="#FF0302" p-id="2451"></path><path d="M121.893647 963.406306h60.592188v60.592188H121.893647z" fill="#000000" p-id="2452"></path><path d="M121.893647 902.817129h60.592188v60.592189H121.893647z" fill="#A60000" p-id="2453"></path><path d="M121.893647 842.223435h60.592188v60.592189H121.893647z" fill="#FF0302" p-id="2454"></path><path d="M121.893647 781.632753h60.592188v60.592188H121.893647z" fill="#FFD800" p-id="2455"></path><path d="M121.893647 721.040565h60.592188v60.592188H121.893647z" fill="#FF0302" p-id="2456"></path><path d="M121.893647 660.449882h60.592188v60.592189H121.893647zM121.893647 599.856188h60.592188v60.592188H121.893647z" fill="#FF0302" p-id="2457"></path><path d="M303.682259 599.856188h60.592188v60.592188h-60.592188z" fill="#000000" p-id="2458"></path></svg>