<?xml version="1.0" standalone="no"?><!DOCTYPE svg PUBLIC "-//W3C//DTD SVG 1.1//EN" "http://www.w3.org/Graphics/SVG/1.1/DTD/svg11.dtd"><svg t="1741849419591" class="icon" viewBox="0 0 1186 1024" version="1.1" xmlns="http://www.w3.org/2000/svg" p-id="4195" xmlns:xlink="http://www.w3.org/1999/xlink" width="231.640625" height="200"><path d="M0 0h53.894024v53.894024H0zM1185.682071 0h-53.894024v53.894024h53.894024zM0 53.894024h53.894024v53.894023H0zM1185.682071 53.895529h-53.894024v53.892518h53.894024zM0 107.788047h53.894024v53.894024H0zM1185.682071 107.788047h-53.894024v53.895529h53.894024zM53.894024 107.788047h53.894023v53.894024H53.894024zM1131.788047 107.788047h-53.894023v53.895529h53.894023z" fill="#3A2802" p-id="4196"></path><path d="M53.894024 53.894024h53.894023v53.894023H53.894024zM1131.788047 53.895529h-53.894023v53.892518h53.894023z" fill="#FFEE7D" p-id="4197"></path><path d="M107.788047 107.788047h53.894024v53.894024H107.788047zM1077.894024 107.788047H1024v53.895529h53.894024zM215.576094 161.685082h53.894024v53.894024h-53.894024zM970.105976 161.685082h-53.894023v53.894024h53.894023z" fill="#FFDE00" p-id="4198"></path><path d="M215.576094 215.579106h53.894024v53.894023h-53.894024zM970.105976 215.579106h-53.894023v53.894023h53.894023zM215.576094 269.473129h53.894024v53.894024h-53.894024zM970.105976 269.473129h-53.894023v53.894024h53.894023zM269.470118 323.367153h53.894023v53.894023h-53.894023zM916.211953 323.367153h-53.894024v53.894023h53.894024zM269.470118 377.261176h53.894023v53.894024h-53.894023zM916.211953 377.261176h-53.894024v53.894024h53.894024z" fill="#FFDE00" p-id="4199"></path><path d="M161.682071 431.158212h53.894023v53.894023h-53.894023zM1024 431.158212h-53.894024v53.894023H1024z" fill="#FF8200" p-id="4200"></path><path d="M215.576094 485.052235h53.894024v53.894024h-53.894024zM970.105976 485.052235h-53.894023v53.894024h53.894023zM269.470118 215.579106h53.894023v53.894023h-53.894023zM916.211953 215.579106h-53.894024v53.894023h53.894024z" fill="#FFDE00" p-id="4201"></path><path d="M269.470118 269.473129h53.894023v53.894024h-53.894023zM916.211953 269.473129h-53.894024v53.894024h53.894024zM323.364141 323.367153h53.894024v53.894023h-53.894024zM862.317929 323.367153h-53.894023v53.894023h53.894023z" fill="#FF8200" p-id="4202"></path><path d="M323.364141 377.261176h53.894024v53.894024h-53.894024zM862.317929 377.261176h-53.894023v53.894024h53.894023zM215.576094 431.158212h53.894024v53.894023h-53.894024zM970.105976 431.158212h-53.894023v53.894023h53.894023zM269.470118 485.052235h53.894023v53.894024h-53.894023zM916.211953 485.052235h-53.894024v53.894024h53.894024z" fill="#FFDE00" p-id="4203"></path><path d="M107.788047 53.894024h53.894024v53.894023H107.788047zM1077.894024 53.895529H1024v53.892518h53.894024zM161.682071 53.894024h53.894023v53.894023h-53.894023zM1024 53.895529h-53.894024v53.892518H1024zM215.576094 53.894024h53.894024v53.894023h-53.894024zM970.105976 53.895529h-53.894023v53.892518h53.894023zM161.682071 107.788047h53.894023v53.894024h-53.894023zM1024 107.788047h-53.894024v53.895529H1024zM53.894024 161.685082h53.894023v53.894024H53.894024zM1131.788047 161.685082h-53.894023v53.894024h53.894023z" fill="#3A2802" p-id="4204"></path><path d="M53.894024 215.579106h53.894023v53.894023H53.894024zM1131.788047 215.579106h-53.894023v53.894023h53.894023zM53.894024 269.473129h53.894023v53.894024H53.894024zM1131.788047 269.473129h-53.894023v53.894024h53.894023zM107.788047 323.367153h53.894024v53.894023H107.788047zM1077.894024 323.367153H1024v53.894023h53.894024zM107.788047 485.052235h53.894024v53.894024H107.788047zM1077.894024 485.052235H1024v53.894024h53.894024zM161.682071 538.947765h53.894023v53.894023h-53.894023zM1024 538.947765h-53.894024v53.894023H1024zM215.576094 592.841788h53.894024v53.894024h-53.894024zM970.105976 592.841788h-53.894023v53.894024h53.894023zM269.470118 646.738824h53.894023v53.894023h-53.894023zM916.211953 646.738824h-53.894024v53.894023h53.894024zM215.576094 700.632847h53.894024v53.894024h-53.894024zM970.105976 700.632847h-53.894023v53.894024h53.894023zM161.682071 754.526871h53.894023v53.894023h-53.894023zM1024 754.526871h-53.894024v53.894023H1024zM161.682071 808.420894h53.894023v53.894024h-53.894023zM1024 808.420894h-53.894024v53.894024H1024zM161.682071 862.314918h53.894023v53.894023h-53.894023zM1024 862.314918h-53.894024v53.894023H1024zM107.788047 377.261176h53.894024v53.894024H107.788047zM1077.894024 377.261176H1024v53.894024h53.894024zM107.788047 431.158212h53.894024v53.894023H107.788047zM1077.894024 431.158212H1024v53.894023h53.894024zM269.470118 161.685082h53.894023v53.894024h-53.894023zM916.211953 161.685082h-53.894024v53.894024h53.894024zM377.258165 107.788047h53.894023v53.894024h-53.894023zM808.423906 107.788047h-53.894024v53.895529h53.894024zM323.364141 215.579106h53.894024v53.894023h-53.894024zM862.317929 215.579106h-53.894023v53.894023h53.894023z" fill="#3A2802" p-id="4205"></path><path d="M323.364141 269.473129h53.894024v53.894024h-53.894024zM862.317929 269.473129h-53.894023v53.894024h53.894023z" fill="#FF8200" p-id="4206"></path><path d="M377.258165 323.367153h53.894023v53.894023h-53.894023zM808.423906 323.367153h-53.894024v53.894023h53.894024z" fill="#FF6800" p-id="4207"></path><path d="M377.258165 377.261176h53.894023v53.894024h-53.894023zM808.423906 377.261176h-53.894024v53.894024h53.894024zM269.470118 431.158212h53.894023v53.894023h-53.894023zM916.211953 431.158212h-53.894024v53.894023h53.894024zM323.364141 485.052235h53.894024v53.894024h-53.894024zM862.317929 485.052235h-53.894023v53.894024h53.894023z" fill="#FF8200" p-id="4208"></path><path d="M323.364141 538.947765h53.894024v53.894023h-53.894024zM862.317929 538.947765h-53.894023v53.894023h53.894023z" fill="#FFDE00" p-id="4209"></path><path d="M377.258165 269.473129h53.894023v53.894024h-53.894023zM808.423906 269.473129h-53.894024v53.894024h53.894024zM431.152188 323.367153h53.894024v53.894023h-53.894024zM754.529882 323.367153h-53.894023v53.894023h53.894023zM538.952282 269.473129h53.894024v53.894024h-53.894024zM646.741835 269.473129h-53.894023v53.894024h53.894023zM538.952282 323.367153h53.894024v53.894023h-53.894024zM646.741835 323.367153h-53.894023v53.894023h53.894023z" fill="#3A2802" p-id="4210"></path><path d="M431.152188 377.261176h53.894024v53.894024h-53.894024zM754.529882 377.261176h-53.894023v53.894024h53.894023z" fill="#FF6800" p-id="4211"></path><path d="M431.152188 431.158212h53.894024v53.894023h-53.894024zM754.529882 431.158212h-53.894023v53.894023h53.894023z" fill="#FF8200" p-id="4212"></path><path d="M323.364141 431.158212h53.894024v53.894023h-53.894024zM862.317929 431.158212h-53.894023v53.894023h53.894023z" fill="#FFDE00" p-id="4213"></path><path d="M377.258165 485.052235h53.894023v53.894024h-53.894023zM808.423906 485.052235h-53.894024v53.894024h53.894024z" fill="#FF8200" p-id="4214"></path><path d="M377.258165 538.947765h53.894023v53.894023h-53.894023zM808.423906 538.947765h-53.894024v53.894023h53.894024z" fill="#FFDE00" p-id="4215"></path><path d="M269.470118 107.788047h53.894023v53.894024h-53.894023zM916.211953 107.788047h-53.894024v53.895529h53.894024zM161.682071 161.685082h53.894023v53.894024h-53.894023zM1024 161.685082h-53.894024v53.894024H1024z" fill="#3A2802" p-id="4216"></path><path d="M161.682071 215.579106h53.894023v53.894023h-53.894023zM1024 215.579106h-53.894024v53.894023H1024z" fill="#3A2802" p-id="4217"></path><path d="M161.682071 269.473129h53.894023v53.894024h-53.894023zM1024 269.473129h-53.894024v53.894024H1024zM215.576094 323.367153h53.894024v53.894023h-53.894024zM970.105976 323.367153h-53.894023v53.894023h53.894023z" fill="#FFDE00" p-id="4218"></path><path d="M215.576094 107.788047h53.894024v53.894024h-53.894024zM970.105976 107.788047h-53.894023v53.895529h53.894023zM107.788047 161.685082h53.894024v53.894024H107.788047zM1077.894024 161.685082H1024v53.894024h53.894024z" fill="#3A2802" p-id="4219"></path><path d="M107.788047 215.579106h53.894024v53.894023H107.788047zM1077.894024 215.579106H1024v53.894023h53.894024zM107.788047 269.473129h53.894024v53.894024H107.788047zM1077.894024 269.473129H1024v53.894024h53.894024zM161.682071 323.367153h53.894023v53.894023h-53.894023zM1024 323.367153h-53.894024v53.894023H1024zM161.682071 485.052235h53.894023v53.894024h-53.894023zM1024 485.052235h-53.894024v53.894024H1024zM215.576094 538.947765h53.894024v53.894023h-53.894024zM970.105976 538.947765h-53.894023v53.894023h53.894023zM269.470118 592.841788h53.894023v53.894024h-53.894023zM916.211953 592.841788h-53.894024v53.894024h53.894024zM323.364141 646.738824h53.894024v53.894023h-53.894024zM862.317929 646.738824h-53.894023v53.894023h53.894023z" fill="#3A2802" p-id="4220"></path><path d="M323.364141 700.632847h53.894024v53.894024h-53.894024zM862.317929 700.632847h-53.894023v53.894024h53.894023z" fill="#FFDE00" p-id="4221"></path><path d="M323.364141 754.526871h53.894024v53.894023h-53.894024zM862.317929 754.526871h-53.894023v53.894023h53.894023zM323.364141 808.420894h53.894024v53.894024h-53.894024zM862.317929 808.420894h-53.894023v53.894024h53.894023zM323.364141 862.314918h53.894024v53.894023h-53.894024zM862.317929 862.314918h-53.894023v53.894023h53.894023z" fill="#FF8200" p-id="4222"></path><path d="M323.364141 916.211953h53.894024v53.894023h-53.894024zM862.317929 916.211953h-53.894023v53.894023h53.894023z" fill="#FFEE7D" p-id="4223"></path><path d="M323.364141 970.105976h53.894024V1024h-53.894024zM862.317929 970.105976h-53.894023V1024h53.894023zM269.470118 700.632847h53.894023v53.894024h-53.894023zM916.211953 700.632847h-53.894024v53.894024h53.894024z" fill="#3A2802" p-id="4224"></path><path d="M269.470118 754.526871h53.894023v53.894023h-53.894023zM916.211953 754.526871h-53.894024v53.894023h53.894024zM269.470118 808.420894h53.894023v53.894024h-53.894023zM916.211953 808.420894h-53.894024v53.894024h53.894024z" fill="#FFDE00" p-id="4225"></path><path d="M269.470118 862.314918h53.894023v53.894023h-53.894023zM916.211953 862.314918h-53.894024v53.894023h53.894024z" fill="#FFEE7D" p-id="4226"></path><path d="M269.470118 916.211953h53.894023v53.894023h-53.894023zM916.211953 916.211953h-53.894024v53.894023h53.894024zM269.470118 970.105976h53.894023V1024h-53.894023zM916.211953 970.105976h-53.894024V1024h53.894024zM215.576094 754.526871h53.894024v53.894023h-53.894024zM970.105976 754.526871h-53.894023v53.894023h53.894023z" fill="#3A2802" p-id="4227"></path><path d="M215.576094 808.420894h53.894024v53.894024h-53.894024zM970.105976 808.420894h-53.894023v53.894024h53.894023z" fill="#FF8200" p-id="4228"></path><path d="M215.576094 862.314918h53.894024v53.894023h-53.894024zM970.105976 862.314918h-53.894023v53.894023h53.894023zM215.576094 916.211953h53.894024v53.894023h-53.894024zM970.105976 916.211953h-53.894023v53.894023h53.894023zM269.470118 538.947765h53.894023v53.894023h-53.894023zM916.211953 538.947765h-53.894024v53.894023h53.894024zM323.364141 592.841788h53.894024v53.894024h-53.894024zM862.317929 592.841788h-53.894023v53.894024h53.894023z" fill="#3A2802" p-id="4229"></path><path d="M377.258165 646.738824h53.894023v53.894023h-53.894023zM808.423906 646.738824h-53.894024v53.894023h53.894024z" fill="#FFDE00" p-id="4230"></path><path d="M377.258165 700.632847h53.894023v53.894024h-53.894023zM808.423906 700.632847h-53.894024v53.894024h53.894024zM377.258165 754.526871h53.894023v53.894023h-53.894023zM808.423906 754.526871h-53.894024v53.894023h53.894024z" fill="#FF6800" p-id="4231"></path><path d="M377.258165 808.420894h53.894023v53.894024h-53.894023zM808.423906 808.420894h-53.894024v53.894024h53.894024z" fill="#FF8200" p-id="4232"></path><path d="M377.258165 862.314918h53.894023v53.894023h-53.894023zM808.423906 862.314918h-53.894024v53.894023h53.894024z" fill="#FFDE00" p-id="4233"></path><path d="M377.258165 916.211953h53.894023v53.894023h-53.894023zM808.423906 916.211953h-53.894024v53.894023h53.894024zM377.258165 970.105976h53.894023V1024h-53.894023zM808.423906 970.105976h-53.894024V1024h53.894024zM377.258165 592.841788h53.894023v53.894024h-53.894023zM808.423906 592.841788h-53.894024v53.894024h53.894024z" fill="#3A2802" p-id="4234"></path><path d="M431.152188 646.738824h53.894024v53.894023h-53.894024zM754.529882 646.738824h-53.894023v53.894023h53.894023zM431.152188 700.632847h53.894024v53.894024h-53.894024zM754.529882 700.632847h-53.894023v53.894024h53.894023z" fill="#FF6800" p-id="4235"></path><path d="M431.152188 754.526871h53.894024v53.894023h-53.894024zM754.529882 754.526871h-53.894023v53.894023h53.894023z" fill="#FF8200" p-id="4236"></path><path d="M431.152188 808.420894h53.894024v53.894024h-53.894024zM754.529882 808.420894h-53.894023v53.894024h53.894023z" fill="#FFDE00" p-id="4237"></path><path d="M431.152188 862.314918h53.894024v53.894023h-53.894024zM754.529882 862.314918h-53.894023v53.894023h53.894023zM431.152188 916.211953h53.894024v53.894023h-53.894024zM754.529882 916.211953h-53.894023v53.894023h53.894023zM161.682071 377.261176h53.894023v53.894024h-53.894023zM1024 377.261176h-53.894024v53.894024H1024zM215.576094 377.261176h53.894024v53.894024h-53.894024zM970.105976 377.261176h-53.894023v53.894024h53.894023zM323.364141 161.685082h53.894024v53.894024h-53.894024zM862.317929 161.685082h-53.894023v53.894024h53.894023zM431.152188 107.788047h53.894024v53.894024h-53.894024zM754.529882 107.788047h-53.894023v53.895529h53.894023z" fill="#3A2802" p-id="4238"></path><path d="M377.258165 215.579106h53.894023v53.894023h-53.894023zM808.423906 215.579106h-53.894024v53.894023h53.894024zM431.152188 269.473129h53.894024v53.894024h-53.894024zM754.529882 269.473129h-53.894023v53.894024h53.894023zM485.047718 323.367153h53.894023v53.894023h-53.894023zM700.635859 323.367153h-53.894024v53.894023h53.894024zM485.047718 161.685082h53.894023v53.894024h-53.894023zM700.635859 161.685082h-53.894024v53.894024h53.894024zM485.047718 377.261176h53.894023v53.894024h-53.894023zM700.635859 377.261176h-53.894024v53.894024h53.894024zM538.952282 377.261176h53.894024v53.894024h-53.894024zM646.741835 377.261176h-53.894023v53.894024h53.894023z" fill="#3A2802" p-id="4239"></path><path d="M485.047718 215.579106h53.894023v53.894023h-53.894023zM700.635859 215.579106h-53.894024v53.894023h53.894024z" fill="#3A2802" p-id="4240"></path><path d="M485.047718 431.158212h53.894023v53.894023h-53.894023zM700.635859 431.158212h-53.894024v53.894023h53.894024z" fill="#FF6800" p-id="4241"></path><path d="M538.952282 431.158212h53.894024v53.894023h-53.894024zM646.741835 431.158212h-53.894023v53.894023h53.894023z" fill="#3A2802" p-id="4242"></path><path d="M485.047718 485.052235h53.894023v53.894024h-53.894023zM700.635859 485.052235h-53.894024v53.894024h53.894024z" fill="#FF6800" p-id="4243"></path><path d="M538.952282 485.052235h53.894024v53.894024h-53.894024zM646.741835 485.052235h-53.894023v53.894024h53.894023z" fill="#3A2802" p-id="4244"></path><path d="M485.047718 538.947765h53.894023v53.894023h-53.894023zM700.635859 538.947765h-53.894024v53.894023h53.894024z" fill="#FF6800" p-id="4245"></path><path d="M538.952282 538.947765h53.894024v53.894023h-53.894024zM646.741835 538.947765h-53.894023v53.894023h53.894023z" fill="#3A2802" p-id="4246"></path><path d="M485.047718 592.841788h53.894023v53.894024h-53.894023zM700.635859 592.841788h-53.894024v53.894024h53.894024z" fill="#FFDE00" p-id="4247"></path><path d="M538.952282 592.841788h53.894024v53.894024h-53.894024zM646.741835 592.841788h-53.894023v53.894024h53.894023zM485.047718 646.738824h53.894023v53.894023h-53.894023zM700.635859 646.738824h-53.894024v53.894023h53.894024zM538.952282 646.738824h53.894024v53.894023h-53.894024zM646.741835 646.738824h-53.894023v53.894023h53.894023zM485.047718 700.632847h53.894023v53.894024h-53.894023zM700.635859 700.632847h-53.894024v53.894024h53.894024zM485.047718 754.526871h53.894023v53.894023h-53.894023zM700.635859 754.526871h-53.894024v53.894023h53.894024zM485.047718 808.420894h53.894023v53.894024h-53.894023zM700.635859 808.420894h-53.894024v53.894024h53.894024zM485.047718 862.314918h53.894023v53.894023h-53.894023zM700.635859 862.314918h-53.894024v53.894023h53.894024z" fill="#3A2802" p-id="4248"></path><path d="M377.258165 431.158212h53.894023v53.894023h-53.894023zM808.423906 431.158212h-53.894024v53.894023h53.894024z" fill="#FFDE00" p-id="4249"></path><path d="M431.152188 485.052235h53.894024v53.894024h-53.894024zM754.529882 485.052235h-53.894023v53.894024h53.894023z" fill="#FF8200" p-id="4250"></path><path d="M431.152188 538.947765h53.894024v53.894023h-53.894024zM754.529882 538.947765h-53.894023v53.894023h53.894023z" fill="#FF6800" p-id="4251"></path><path d="M431.152188 592.841788h53.894024v53.894024h-53.894024zM754.529882 592.841788h-53.894023v53.894024h53.894023z" fill="#FFDE00" p-id="4252"></path><path d="M53.894024 0h53.894023v53.894024H53.894024zM1131.788047 0h-53.894023v53.894024h53.894023zM107.788047 0h53.894024v53.894024H107.788047zM1077.894024 0H1024v53.894024h53.894024z" fill="#3A2802" p-id="4253"></path></svg>