<?xml version="1.0" standalone="no"?><!DOCTYPE svg PUBLIC "-//W3C//DTD SVG 1.1//EN" "http://www.w3.org/Graphics/SVG/1.1/DTD/svg11.dtd"><svg t="1741860463716" class="icon" viewBox="0 0 1024 1024" version="1.1" xmlns="http://www.w3.org/2000/svg" p-id="2465" xmlns:xlink="http://www.w3.org/1999/xlink" width="200" height="200"><path d="M787 787v-55h55v55h-55z m-55 55v-55h55v55h-55z m55-605h55v55h-55v-55z m-55-55h55v55h-55v-55zM237 787h55v55h-55v-55z m-55-55h55v55h-55v-55z m0-440v-55h55v55h-55z m55-110h55v55h-55v-55z" fill="#DF4958" p-id="2466"></path><path d="M842 787V237h55v550h-55z m-55-605h55v55h-55v-55z m-605 55v-55h55v55h-55z m55 605h-55v-55h55v55z m605-55v55h-55v-55h55z m-55 110H237v-55h550v55zM127 787V237h55v550h-55z m110-660h550v55H237v-55z" fill="#D53B4B" p-id="2467"></path><path d="M787 732v55h-55v55H292v-55h-55v-55h-55V292h55v-55h55v-55h440v55h55v55h55v440h-55z" fill="#F36372" p-id="2468"></path><path d="M732 677v55h-55v55H347v-55h-55v-55h-55V402h55v-55h55v-55h55v165h-55v165h55v55h220v-55h55V457h-55V292h55v55h55v55h55v275h-55zM457 237h110v275H457V237z" fill="#FFFFFF" p-id="2469"></path></svg>