<?xml version="1.0" standalone="no"?><!DOCTYPE svg PUBLIC "-//W3C//DTD SVG 1.1//EN" "http://www.w3.org/Graphics/SVG/1.1/DTD/svg11.dtd"><svg t="1741849390008" class="icon" viewBox="0 0 1024 1024" version="1.1" xmlns="http://www.w3.org/2000/svg" p-id="2143" xmlns:xlink="http://www.w3.org/1999/xlink" width="200" height="200"><path d="M204.8 307.2h51.2v51.2h-51.2zM204.8 358.4h51.2v51.2h-51.2z" fill="#000000" p-id="2144"></path><path d="M204.8 409.6h51.2v51.2h-51.2z" fill="#8548C5" p-id="2145"></path><path d="M153.6 409.6h51.2v51.2h-51.2zM512 409.6h-51.2v51.2h51.2zM102.4 460.8h51.2v51.2H102.4zM563.2 460.8h-51.2v51.2h51.2zM51.2 512h51.2v51.2H51.2zM614.4 512h-51.2v51.2h51.2zM0 563.2h51.2v51.2H0zM665.6 563.2h-51.2v51.2h51.2zM0 614.4h51.2v51.2H0zM665.6 614.4h-51.2v51.2h51.2zM0 665.6h51.2v51.2H0zM665.6 665.6h-51.2v51.2h51.2zM0 716.8h51.2v51.2H0zM665.6 716.8h-51.2v51.2h51.2zM0 768h51.2v51.2H0zM665.6 768h-51.2v51.2h51.2zM51.2 819.2h51.2v51.2H51.2zM102.4 870.4h51.2v51.2H102.4zM153.6 921.6h51.2v51.2h-51.2zM460.8 921.6h51.2v51.2h-51.2zM512 870.4h51.2v51.2h-51.2zM563.2 819.2h51.2v51.2h-51.2z" fill="#000000" p-id="2146"></path><path d="M204.8 460.8h51.2v51.2h-51.2zM153.6 460.8h51.2v51.2h-51.2z" fill="#8548C5" p-id="2147"></path><path d="M460.8 460.8h51.2v51.2h-51.2z" fill="#662C91" p-id="2148"></path><path d="M204.8 512h51.2v51.2h-51.2zM153.6 512h51.2v51.2h-51.2zM102.4 512h51.2v51.2H102.4z" fill="#8548C5" p-id="2149"></path><path d="M512 512h51.2v51.2h-51.2z" fill="#662C91" p-id="2150"></path><path d="M460.8 512h51.2v51.2h-51.2zM204.8 563.2h51.2v51.2h-51.2z" fill="#8548C5" p-id="2151"></path><path d="M153.6 563.2h51.2v51.2h-51.2z" fill="#FFFFFF" p-id="2152"></path><path d="M102.4 563.2h51.2v51.2H102.4zM51.2 563.2h51.2v51.2H51.2z" fill="#8548C5" p-id="2153"></path><path d="M563.2 563.2h51.2v51.2h-51.2z" fill="#662C91" p-id="2154"></path><path d="M512 563.2h51.2v51.2h-51.2zM460.8 563.2h51.2v51.2h-51.2zM204.8 614.4h51.2v51.2h-51.2zM153.6 614.4h51.2v51.2h-51.2z" fill="#8548C5" p-id="2155"></path><path d="M102.4 614.4h51.2v51.2H102.4z" fill="#FFFFFF" p-id="2156"></path><path d="M51.2 614.4h51.2v51.2H51.2z" fill="#8548C5" p-id="2157"></path><path d="M563.2 614.4h51.2v51.2h-51.2z" fill="#662C91" p-id="2158"></path><path d="M512 614.4h51.2v51.2h-51.2zM460.8 614.4h51.2v51.2h-51.2zM204.8 665.6h51.2v51.2h-51.2zM153.6 665.6h51.2v51.2h-51.2z" fill="#8548C5" p-id="2159"></path><path d="M102.4 665.6h51.2v51.2H102.4z" fill="#FFFFFF" p-id="2160"></path><path d="M51.2 665.6h51.2v51.2H51.2z" fill="#8548C5" p-id="2161"></path><path d="M563.2 665.6h51.2v51.2h-51.2z" fill="#662C91" p-id="2162"></path><path d="M512 665.6h51.2v51.2h-51.2zM460.8 665.6h51.2v51.2h-51.2zM204.8 716.8h51.2v51.2h-51.2z" fill="#8548C5" p-id="2163"></path><path d="M153.6 716.8h51.2v51.2h-51.2z" fill="#FFFFFF" p-id="2164"></path><path d="M102.4 716.8h51.2v51.2H102.4zM51.2 716.8h51.2v51.2H51.2z" fill="#8548C5" p-id="2165"></path><path d="M563.2 716.8h51.2v51.2h-51.2z" fill="#662C91" p-id="2166"></path><path d="M512 716.8h51.2v51.2h-51.2zM460.8 716.8h51.2v51.2h-51.2zM204.8 768h51.2v51.2h-51.2zM153.6 768h51.2v51.2h-51.2zM102.4 768h51.2v51.2H102.4zM51.2 768h51.2v51.2H51.2z" fill="#8548C5" p-id="2167"></path><path d="M563.2 768h51.2v51.2h-51.2z" fill="#662C91" p-id="2168"></path><path d="M512 768h51.2v51.2h-51.2zM460.8 768h51.2v51.2h-51.2z" fill="#8548C5" p-id="2169"></path><path d="M204.8 819.2h51.2v51.2h-51.2z" fill="#FFFFFF" p-id="2170"></path><path d="M153.6 819.2h51.2v51.2h-51.2zM102.4 819.2h51.2v51.2H102.4z" fill="#8548C5" p-id="2171"></path><path d="M512 819.2h51.2v51.2h-51.2z" fill="#662C91" p-id="2172"></path><path d="M460.8 819.2h51.2v51.2h-51.2zM204.8 870.4h51.2v51.2h-51.2zM153.6 870.4h51.2v51.2h-51.2z" fill="#8548C5" p-id="2173"></path><path d="M460.8 870.4h51.2v51.2h-51.2z" fill="#662C91" p-id="2174"></path><path d="M204.8 921.6h51.2v51.2h-51.2z" fill="#B376F5" p-id="2175"></path><path d="M204.8 972.8h51.2v51.2h-51.2zM256 307.2h51.2v51.2h-51.2z" fill="#000000" p-id="2176"></path><path d="M256 358.4h51.2v51.2h-51.2z" fill="#B376F5" p-id="2177"></path><path d="M256 409.6h51.2v51.2h-51.2zM256 460.8h51.2v51.2h-51.2zM256 512h51.2v51.2h-51.2zM256 563.2h51.2v51.2h-51.2zM256 614.4h51.2v51.2h-51.2zM256 665.6h51.2v51.2h-51.2zM256 716.8h51.2v51.2h-51.2zM256 768h51.2v51.2h-51.2zM256 819.2h51.2v51.2h-51.2zM256 870.4h51.2v51.2h-51.2z" fill="#8548C5" p-id="2178"></path><path d="M256 921.6h51.2v51.2h-51.2z" fill="#662C91" p-id="2179"></path><path d="M256 972.8h51.2v51.2h-51.2zM307.2 307.2h51.2v51.2h-51.2z" fill="#000000" p-id="2180"></path><path d="M307.2 358.4h51.2v51.2h-51.2z" fill="#B376F5" p-id="2181"></path><path d="M307.2 409.6h51.2v51.2h-51.2zM307.2 460.8h51.2v51.2h-51.2zM307.2 512h51.2v51.2h-51.2zM307.2 563.2h51.2v51.2h-51.2zM307.2 614.4h51.2v51.2h-51.2zM307.2 665.6h51.2v51.2h-51.2zM307.2 716.8h51.2v51.2h-51.2zM307.2 768h51.2v51.2h-51.2zM307.2 819.2h51.2v51.2h-51.2zM307.2 870.4h51.2v51.2h-51.2z" fill="#8548C5" p-id="2182"></path><path d="M307.2 921.6h51.2v51.2h-51.2z" fill="#662C91" p-id="2183"></path><path d="M307.2 972.8h51.2v51.2h-51.2zM307.2 256h51.2v51.2h-51.2zM358.4 204.8h51.2v51.2h-51.2zM409.6 153.6h51.2v51.2h-51.2zM460.8 153.6h51.2v51.2h-51.2zM512 204.8h51.2v51.2h-51.2zM563.2 256h51.2v51.2h-51.2zM614.4 256h51.2v51.2h-51.2zM665.6 204.8h51.2v51.2h-51.2z" fill="#000000" p-id="2184"></path><path d="M870.4 204.8h51.2v51.2h-51.2zM819.2 307.2h51.2v51.2h-51.2zM819.2 153.6h51.2V102.4h-51.2zM716.8 307.2h51.2v51.2h-51.2zM716.8 153.6h51.2V102.4h-51.2z" fill="#FF2881" p-id="2185"></path><path d="M665.6 358.4h51.2v51.2h-51.2zM665.6 102.4h51.2V51.2h-51.2z" fill="#FF7AAD" p-id="2186"></path><path d="M614.4 409.6h51.2v51.2h-51.2zM614.4 51.2h51.2V0h-51.2z" fill="#FFA1CD" p-id="2187"></path><path d="M870.4 358.4h51.2v51.2h-51.2zM870.4 102.4h51.2V51.2h-51.2z" fill="#FF7AAD" p-id="2188"></path><path d="M921.6 409.6h51.2v51.2h-51.2zM921.6 51.2h51.2V0h-51.2z" fill="#FFA1CD" p-id="2189"></path><path d="M716.8 204.8h51.2v51.2h-51.2z" fill="#B70C62" p-id="2190"></path><path d="M921.6 204.8h51.2v51.2h-51.2z" fill="#FF7AAD" p-id="2191"></path><path d="M768 204.8h51.2v51.2h-51.2z" fill="#FF2881" p-id="2192"></path><path d="M972.8 204.8h51.2v51.2h-51.2z" fill="#FFA1CD" p-id="2193"></path><path d="M358.4 307.2h51.2v51.2h-51.2z" fill="#000000" p-id="2194"></path><path d="M358.4 358.4h51.2v51.2h-51.2z" fill="#662C91" p-id="2195"></path><path d="M358.4 409.6h51.2v51.2h-51.2zM358.4 460.8h51.2v51.2h-51.2zM358.4 512h51.2v51.2h-51.2zM358.4 563.2h51.2v51.2h-51.2zM358.4 614.4h51.2v51.2h-51.2zM358.4 665.6h51.2v51.2h-51.2zM358.4 716.8h51.2v51.2h-51.2zM358.4 768h51.2v51.2h-51.2zM358.4 819.2h51.2v51.2h-51.2zM358.4 870.4h51.2v51.2h-51.2z" fill="#8548C5" p-id="2196"></path><path d="M358.4 921.6h51.2v51.2h-51.2z" fill="#662C91" p-id="2197"></path><path d="M358.4 972.8h51.2v51.2h-51.2zM409.6 307.2h51.2v51.2h-51.2zM409.6 358.4h51.2v51.2h-51.2z" fill="#000000" p-id="2198"></path><path d="M409.6 409.6h51.2v51.2h-51.2z" fill="#662C91" p-id="2199"></path><path d="M409.6 460.8h51.2v51.2h-51.2zM409.6 512h51.2v51.2h-51.2zM409.6 563.2h51.2v51.2h-51.2zM409.6 614.4h51.2v51.2h-51.2zM409.6 665.6h51.2v51.2h-51.2zM409.6 716.8h51.2v51.2h-51.2zM409.6 768h51.2v51.2h-51.2zM409.6 819.2h51.2v51.2h-51.2zM409.6 870.4h51.2v51.2h-51.2z" fill="#8548C5" p-id="2200"></path><path d="M409.6 921.6h51.2v51.2h-51.2z" fill="#662C91" p-id="2201"></path><path d="M409.6 972.8h51.2v51.2h-51.2z" fill="#000000" p-id="2202"></path></svg>